# WaveFront *.obj file (generated by Autodesk ATF)

mtllib 26257485-59a7-4900-8f7e-104e59ffe4d1.mtl

g Body2

v 0.000000 0.025000 0.025000
v 0.005198 0.024454 0.025000
v 0.010168 0.022839 0.025000
v 0.014695 0.020225 0.025000
v 0.018579 0.016728 0.025000
v 0.021651 0.012500 0.025000
v 0.023776 0.007725 0.025000
v 0.024863 0.002613 0.025000
v 0.024863 -0.002613 0.025000
v 0.023776 -0.007725 0.025000
v 0.021651 -0.012500 0.025000
v 0.018579 -0.016728 0.025000
v 0.014695 -0.020225 0.025000
v 0.010168 -0.022839 0.025000
v 0.005198 -0.024454 0.025000
v -0.000000 -0.025000 0.025000
v -0.005198 -0.024454 0.025000
v -0.010168 -0.022839 0.025000
v -0.014695 -0.020225 0.025000
v -0.018579 -0.016728 0.025000
v -0.021651 -0.012500 0.025000
v -0.023776 -0.007725 0.025000
v -0.024863 -0.002613 0.025000
v -0.024863 0.002613 0.025000
v -0.023776 0.007725 0.025000
v -0.021651 0.012500 0.025000
v -0.018579 0.016728 0.025000
v -0.014695 0.020225 0.025000
v -0.010168 0.022839 0.025000
v -0.005198 0.024454 0.025000
v 0.000000 0.020000 0.017500
v -0.004612 0.019461 0.017500
v -0.008976 0.017873 0.017500
v -0.012856 0.015321 0.017500
v -0.016042 0.011943 0.017500
v -0.018364 0.007922 0.017500
v -0.019696 0.003473 0.017500
v -0.019966 -0.001163 0.017500
v -0.019160 -0.005736 0.017500
v -0.017321 -0.010000 0.017500
v -0.014547 -0.013725 0.017500
v -0.010990 -0.016710 0.017500
v -0.006840 -0.018794 0.017500
v -0.002322 -0.019865 0.017500
v 0.002322 -0.019865 0.017500
v 0.006840 -0.018794 0.017500
v 0.010990 -0.016710 0.017500
v 0.014547 -0.013725 0.017500
v 0.017321 -0.010000 0.017500
v 0.019160 -0.005736 0.017500
v 0.019966 -0.001163 0.017500
v 0.019696 0.003473 0.017500
v 0.018364 0.007922 0.017500
v 0.016042 0.011943 0.017500
v 0.012856 0.015321 0.017500
v 0.008976 0.017873 0.017500
v 0.004612 0.019461 0.017500
v -0.050000 0.050000 0.025000
v 0.050000 0.050000 0.025000
v 0.050000 -0.050000 0.025000
v -0.050000 -0.050000 0.025000
v 0.015000 -0.000000 0.025000
v 0.014489 -0.003882 0.025000
v 0.012990 -0.007500 0.025000
v 0.010607 -0.010607 0.025000
v 0.007500 -0.012990 0.025000
v 0.003882 -0.014489 0.025000
v 0.000000 -0.015000 0.025000
v -0.003882 -0.014489 0.025000
v -0.007500 -0.012990 0.025000
v -0.010607 -0.010607 0.025000
v -0.012990 -0.007500 0.025000
v -0.014489 -0.003882 0.025000
v -0.015000 -0.000000 0.025000
v -0.014489 0.003882 0.025000
v -0.012990 0.007500 0.025000
v -0.010607 0.010607 0.025000
v -0.007500 0.012990 0.025000
v -0.003882 0.014489 0.025000
v -0.000000 0.015000 0.025000
v 0.003882 0.014489 0.025000
v 0.007500 0.012990 0.025000
v 0.010607 0.010607 0.025000
v 0.012990 0.007500 0.025000
v 0.014489 0.003882 0.025000
v 0.050000 0.050000 0.030000
v 0.050000 -0.050000 0.030000
v -0.050000 -0.050000 0.030000
v -0.050000 0.050000 0.030000
v -0.019932 0.001650 0.010000
v -0.019934 0.001619 0.009683
v -0.019942 0.001524 0.009368
v -0.019953 0.001369 0.009079
v -0.019966 0.001167 0.008833
v -0.019979 0.000921 0.008631
v -0.019990 0.000632 0.008476
v -0.019997 0.000317 0.008381
v -0.020000 -0.000000 0.008350
v -0.019997 -0.000317 0.008381
v -0.019990 -0.000632 0.008476
v -0.019979 -0.000921 0.008631
v -0.019966 -0.001167 0.008833
v -0.019953 -0.001369 0.009079
v -0.019942 -0.001524 0.009368
v -0.019934 -0.001619 0.009683
v -0.019932 -0.001650 0.010000
v -0.019934 -0.001619 0.010317
v -0.019942 -0.001524 0.010632
v -0.019953 -0.001369 0.010921
v -0.019966 -0.001167 0.011167
v -0.019979 -0.000921 0.011369
v -0.019990 -0.000632 0.011524
v -0.019997 -0.000317 0.011619
v -0.020000 0.000000 0.011650
v -0.019997 0.000317 0.011619
v -0.019990 0.000632 0.011524
v -0.019979 0.000921 0.011369
v -0.019966 0.001167 0.011167
v -0.019953 0.001369 0.010921
v -0.019942 0.001524 0.010632
v -0.019934 0.001619 0.010317
v -0.014909 0.001650 0.010000
v -0.014912 0.001619 0.010317
v -0.014922 0.001524 0.010632
v -0.014937 0.001369 0.010921
v -0.014955 0.001167 0.011167
v -0.014972 0.000921 0.011369
v -0.014987 0.000632 0.011524
v -0.014997 0.000317 0.011619
v -0.015000 0.000000 0.011650
v -0.014997 -0.000317 0.011619
v -0.014987 -0.000632 0.011524
v -0.014972 -0.000921 0.011369
v -0.014955 -0.001167 0.011167
v -0.014937 -0.001369 0.010921
v -0.014922 -0.001524 0.010632
v -0.014912 -0.001619 0.010317
v -0.014909 -0.001650 0.010000
v -0.014912 -0.001619 0.009683
v -0.014922 -0.001524 0.009368
v -0.014937 -0.001369 0.009079
v -0.014955 -0.001167 0.008833
v -0.014972 -0.000921 0.008631
v -0.014987 -0.000632 0.008476
v -0.014997 -0.000317 0.008381
v -0.015000 0.000000 0.008350
v -0.014997 0.000317 0.008381
v -0.014987 0.000632 0.008476
v -0.014972 0.000921 0.008631
v -0.014955 0.001167 0.008833
v -0.014937 0.001369 0.009079
v -0.014922 0.001524 0.009368
v -0.014912 0.001619 0.009683
v 0.014909 0.001650 0.010000
v 0.014912 0.001619 0.009683
v 0.014922 0.001524 0.009368
v 0.014937 0.001369 0.009079
v 0.014955 0.001167 0.008833
v 0.014972 0.000921 0.008631
v 0.014987 0.000632 0.008476
v 0.014997 0.000317 0.008381
v 0.015000 0.000000 0.008350
v 0.014997 -0.000317 0.008381
v 0.014987 -0.000632 0.008476
v 0.014972 -0.000921 0.008631
v 0.014955 -0.001167 0.008833
v 0.014937 -0.001369 0.009079
v 0.014922 -0.001524 0.009368
v 0.014912 -0.001619 0.009683
v 0.014909 -0.001650 0.010000
v 0.014912 -0.001619 0.010317
v 0.014922 -0.001524 0.010632
v 0.014937 -0.001369 0.010921
v 0.014955 -0.001167 0.011167
v 0.014972 -0.000921 0.011369
v 0.014987 -0.000632 0.011524
v 0.014997 -0.000317 0.011619
v 0.015000 0.000000 0.011650
v 0.014997 0.000317 0.011619
v 0.014987 0.000632 0.011524
v 0.014972 0.000921 0.011369
v 0.014955 0.001167 0.011167
v 0.014937 0.001369 0.010921
v 0.014922 0.001524 0.010632
v 0.014912 0.001619 0.010317
v 0.019932 0.001650 0.010000
v 0.019934 0.001619 0.010317
v 0.019942 0.001524 0.010632
v 0.019953 0.001369 0.010921
v 0.019966 0.001167 0.011167
v 0.019979 0.000921 0.011369
v 0.019990 0.000632 0.011524
v 0.019997 0.000317 0.011619
v 0.020000 0.000000 0.011650
v 0.019997 -0.000317 0.011619
v 0.019990 -0.000632 0.011524
v 0.019979 -0.000921 0.011369
v 0.019966 -0.001167 0.011167
v 0.019953 -0.001369 0.010921
v 0.019942 -0.001524 0.010632
v 0.019934 -0.001619 0.010317
v 0.019932 -0.001650 0.010000
v 0.019934 -0.001619 0.009683
v 0.019942 -0.001524 0.009368
v 0.019953 -0.001369 0.009079
v 0.019966 -0.001167 0.008833
v 0.019979 -0.000921 0.008631
v 0.019990 -0.000632 0.008476
v 0.019997 -0.000317 0.008381
v 0.020000 0.000000 0.008350
v 0.019997 0.000317 0.008381
v 0.019990 0.000632 0.008476
v 0.019979 0.000921 0.008631
v 0.019966 0.001167 0.008833
v 0.019953 0.001369 0.009079
v 0.019942 0.001524 0.009368
v 0.019934 0.001619 0.009683
v -0.001650 -0.019932 0.010000
v -0.001619 -0.019934 0.009683
v -0.001524 -0.019942 0.009368
v -0.001369 -0.019953 0.009079
v -0.001167 -0.019966 0.008833
v -0.000921 -0.019979 0.008631
v -0.000632 -0.019990 0.008476
v -0.000317 -0.019997 0.008381
v -0.000000 -0.020000 0.008350
v 0.000317 -0.019997 0.008381
v 0.000632 -0.019990 0.008476
v 0.000921 -0.019979 0.008631
v 0.001167 -0.019966 0.008833
v 0.001369 -0.019953 0.009079
v 0.001524 -0.019942 0.009368
v 0.001619 -0.019934 0.009683
v 0.001650 -0.019932 0.010000
v 0.001619 -0.019934 0.010317
v 0.001524 -0.019942 0.010632
v 0.001369 -0.019953 0.010921
v 0.001167 -0.019966 0.011167
v 0.000921 -0.019979 0.011369
v 0.000632 -0.019990 0.011524
v 0.000317 -0.019997 0.011619
v -0.000000 -0.020000 0.011650
v -0.000317 -0.019997 0.011619
v -0.000632 -0.019990 0.011524
v -0.000921 -0.019979 0.011369
v -0.001167 -0.019966 0.011167
v -0.001369 -0.019953 0.010921
v -0.001524 -0.019942 0.010632
v -0.001619 -0.019934 0.010317
v -0.001650 -0.014909 0.010000
v -0.001619 -0.014912 0.010317
v -0.001524 -0.014922 0.010632
v -0.001369 -0.014937 0.010921
v -0.001167 -0.014955 0.011167
v -0.000921 -0.014972 0.011369
v -0.000632 -0.014987 0.011524
v -0.000317 -0.014997 0.011619
v -0.000000 -0.015000 0.011650
v 0.000317 -0.014997 0.011619
v 0.000632 -0.014987 0.011524
v 0.000921 -0.014972 0.011369
v 0.001167 -0.014955 0.011167
v 0.001369 -0.014937 0.010921
v 0.001524 -0.014922 0.010632
v 0.001619 -0.014912 0.010317
v 0.001650 -0.014909 0.010000
v 0.001619 -0.014912 0.009683
v 0.001524 -0.014922 0.009368
v 0.001369 -0.014937 0.009079
v 0.001167 -0.014955 0.008833
v 0.000921 -0.014972 0.008631
v 0.000632 -0.014987 0.008476
v 0.000317 -0.014997 0.008381
v -0.000000 -0.015000 0.008350
v -0.000317 -0.014997 0.008381
v -0.000632 -0.014987 0.008476
v -0.000921 -0.014972 0.008631
v -0.001167 -0.014955 0.008833
v -0.001369 -0.014937 0.009079
v -0.001524 -0.014922 0.009368
v -0.001619 -0.014912 0.009683
v -0.001650 0.014909 0.010000
v -0.001619 0.014912 0.009683
v -0.001524 0.014922 0.009368
v -0.001369 0.014937 0.009079
v -0.001167 0.014955 0.008833
v -0.000921 0.014972 0.008631
v -0.000632 0.014987 0.008476
v -0.000317 0.014997 0.008381
v -0.000000 0.015000 0.008350
v 0.000317 0.014997 0.008381
v 0.000632 0.014987 0.008476
v 0.000921 0.014972 0.008631
v 0.001167 0.014955 0.008833
v 0.001369 0.014937 0.009079
v 0.001524 0.014922 0.009368
v 0.001619 0.014912 0.009683
v 0.001650 0.014909 0.010000
v 0.001619 0.014912 0.010317
v 0.001524 0.014922 0.010632
v 0.001369 0.014937 0.010921
v 0.001167 0.014955 0.011167
v 0.000921 0.014972 0.011369
v 0.000632 0.014987 0.011524
v 0.000317 0.014997 0.011619
v -0.000000 0.015000 0.011650
v -0.000317 0.014997 0.011619
v -0.000632 0.014987 0.011524
v -0.000921 0.014972 0.011369
v -0.001167 0.014955 0.011167
v -0.001369 0.014937 0.010921
v -0.001524 0.014922 0.010632
v -0.001619 0.014912 0.010317
v -0.001650 0.019932 0.010000
v -0.001619 0.019934 0.010317
v -0.001524 0.019942 0.010632
v -0.001369 0.019953 0.010921
v -0.001167 0.019966 0.011167
v -0.000921 0.019979 0.011369
v -0.000632 0.019990 0.011524
v -0.000317 0.019997 0.011619
v -0.000000 0.020000 0.011650
v 0.000317 0.019997 0.011619
v 0.000632 0.019990 0.011524
v 0.000921 0.019979 0.011369
v 0.001167 0.019966 0.011167
v 0.001369 0.019953 0.010921
v 0.001524 0.019942 0.010632
v 0.001619 0.019934 0.010317
v 0.001650 0.019932 0.010000
v 0.001619 0.019934 0.009683
v 0.001524 0.019942 0.009368
v 0.001369 0.019953 0.009079
v 0.001167 0.019966 0.008833
v 0.000921 0.019979 0.008631
v 0.000632 0.019990 0.008476
v 0.000317 0.019997 0.008381
v -0.000000 0.020000 0.008350
v -0.000317 0.019997 0.008381
v -0.000632 0.019990 0.008476
v -0.000921 0.019979 0.008631
v -0.001167 0.019966 0.008833
v -0.001369 0.019953 0.009079
v -0.001524 0.019942 0.009368
v -0.001619 0.019934 0.009683
v 0.015000 -0.000000 0.004000
v 0.014489 -0.003882 0.004000
v 0.012990 -0.007500 0.004000
v 0.010607 -0.010607 0.004000
v 0.007500 -0.012990 0.004000
v 0.003882 -0.014489 0.004000
v 0.000000 -0.015000 0.004000
v -0.003882 -0.014489 0.004000
v -0.007500 -0.012990 0.004000
v -0.010607 -0.010607 0.004000
v -0.012990 -0.007500 0.004000
v -0.014489 -0.003882 0.004000
v -0.015000 -0.000000 0.004000
v -0.014489 0.003882 0.004000
v -0.012990 0.007500 0.004000
v -0.010607 0.010607 0.004000
v -0.007500 0.012990 0.004000
v -0.003882 0.014489 0.004000
v -0.000000 0.015000 0.004000
v 0.003882 0.014489 0.004000
v 0.007500 0.012990 0.004000
v 0.010607 0.010607 0.004000
v 0.012990 0.007500 0.004000
v 0.014489 0.003882 0.004000
v 0.018000 -0.000000 0.000000
v 0.017434 -0.004476 0.000000
v 0.015774 -0.008672 0.000000
v 0.013121 -0.012322 0.000000
v 0.009645 -0.015198 0.000000
v 0.005562 -0.017119 0.000000
v 0.001130 -0.017964 0.000000
v -0.003373 -0.017681 0.000000
v -0.007664 -0.016287 0.000000
v -0.011474 -0.013869 0.000000
v -0.014562 -0.010580 0.000000
v -0.016736 -0.006626 0.000000
v -0.017858 -0.002256 0.000000
v -0.017858 0.002256 0.000000
v -0.016736 0.006626 0.000000
v -0.014562 0.010580 0.000000
v -0.011474 0.013869 0.000000
v -0.007664 0.016287 0.000000
v -0.003373 0.017681 0.000000
v 0.001130 0.017964 0.000000
v 0.005562 0.017119 0.000000
v 0.009645 0.015198 0.000000
v 0.013121 0.012322 0.000000
v 0.015774 0.008672 0.000000
v 0.017434 0.004476 0.000000
v 0.020000 0.000000 0.000000
v 0.019461 -0.004612 0.000000
v 0.017873 -0.008976 0.000000
v 0.015321 -0.012856 0.000000
v 0.011943 -0.016042 0.000000
v 0.007922 -0.018364 0.000000
v 0.003473 -0.019696 0.000000
v -0.001163 -0.019966 0.000000
v -0.005736 -0.019160 0.000000
v -0.010000 -0.017321 0.000000
v -0.013725 -0.014547 0.000000
v -0.016710 -0.010990 0.000000
v -0.018794 -0.006840 0.000000
v -0.019865 -0.002322 0.000000
v -0.019865 0.002322 0.000000
v -0.018794 0.006840 0.000000
v -0.016710 0.010990 0.000000
v -0.013725 0.014547 0.000000
v -0.010000 0.017321 0.000000
v -0.005736 0.019160 0.000000
v -0.001163 0.019966 0.000000
v 0.003473 0.019696 0.000000
v 0.007922 0.018364 0.000000
v 0.011943 0.016042 0.000000
v 0.015321 0.012856 0.000000
v 0.017873 0.008976 0.000000
v 0.019461 0.004612 0.000000
vt 4.506939 -4.712389 0.000000
vt 4.506939 0.000000 0.000000
vt -4.506939 0.000000 0.000000
vt 4.506939 4.712389 0.000000
vt -4.506939 5.235988 0.000000
vt 4.506939 9.424778 0.000000
vt -4.506939 10.471976 0.000000
vt 4.506939 14.137167 0.000000
vt -4.506939 15.707963 0.000000
vt 4.506939 18.849556 0.000000
vt -4.506939 20.943951 0.000000
vt 4.506939 23.561945 0.000000
vt -4.506939 26.179939 0.000000
vt 4.506939 28.274334 0.000000
vt -4.506939 31.415927 0.000000
vt 4.506939 32.986723 0.000000
vt -4.506939 36.651914 0.000000
vt 4.506939 37.699112 0.000000
vt -4.506939 41.887902 0.000000
vt 4.506939 42.411501 0.000000
vt -4.506939 47.123890 0.000000
vt 4.506939 47.123890 0.000000
vt 4.506939 51.836279 0.000000
vt -4.506939 52.359878 0.000000
vt 4.506939 56.548668 0.000000
vt -4.506939 57.595865 0.000000
vt 4.506939 61.261057 0.000000
vt -4.506939 62.831853 0.000000
vt 4.506939 65.973446 0.000000
vt -4.506939 68.067841 0.000000
vt 4.506939 70.685835 0.000000
vt -4.506939 73.303829 0.000000
vt -4.506939 -68.067841 0.000000
vt 4.506939 -70.685835 0.000000
vt 4.506939 -65.973446 0.000000
vt -4.506939 -62.831853 0.000000
vt 4.506939 -61.261057 0.000000
vt -4.506939 -57.595865 0.000000
vt 4.506939 -56.548668 0.000000
vt -4.506939 -52.359878 0.000000
vt 4.506939 -51.836279 0.000000
vt -4.506939 -47.123890 0.000000
vt 4.506939 -47.123890 0.000000
vt 4.506939 -42.411501 0.000000
vt -4.506939 -41.887902 0.000000
vt 4.506939 -37.699112 0.000000
vt -4.506939 -36.651914 0.000000
vt 4.506939 -32.986723 0.000000
vt -4.506939 -31.415927 0.000000
vt 4.506939 -28.274334 0.000000
vt -4.506939 -26.179939 0.000000
vt 4.506939 -23.561945 0.000000
vt -4.506939 -20.943951 0.000000
vt 4.506939 -18.849556 0.000000
vt -4.506939 -15.707963 0.000000
vt 4.506939 -14.137167 0.000000
vt -4.506939 -10.471976 0.000000
vt 4.506939 -9.424778 0.000000
vt -4.506939 -5.235988 0.000000
vt -5.197792 -24.453690 0.000000
vt -50.000000 -50.000000 0.000000
vt -0.000000 -25.000000 0.000000
vt 50.000000 -50.000000 0.000000
vt 5.197792 -24.453690 0.000000
vt 10.168416 -22.838636 0.000000
vt 14.694631 -20.225425 0.000000
vt 18.578621 -16.728265 0.000000
vt 21.650635 -12.500000 0.000000
vt 23.776413 -7.725425 0.000000
vt 24.863047 -2.613212 0.000000
vt 24.863047 2.613212 0.000000
vt 50.000000 50.000000 0.000000
vt 23.776413 7.725425 0.000000
vt 21.650635 12.500000 0.000000
vt 18.578621 16.728265 0.000000
vt 14.694631 20.225425 0.000000
vt 10.168416 22.838636 0.000000
vt 5.197792 24.453690 0.000000
vt -0.000000 25.000000 0.000000
vt -50.000000 50.000000 0.000000
vt -5.197792 24.453690 0.000000
vt -10.168416 22.838636 0.000000
vt -14.694631 20.225425 0.000000
vt -18.578621 16.728265 0.000000
vt -21.650635 12.500000 0.000000
vt -23.776413 7.725425 0.000000
vt -24.863047 2.613212 0.000000
vt -24.863047 -2.613212 0.000000
vt -23.776413 -7.725425 0.000000
vt -21.650635 -12.500000 0.000000
vt -18.578621 -16.728265 0.000000
vt -14.694631 -20.225425 0.000000
vt -10.168416 -22.838636 0.000000
vt 14.488887 3.882286 0.000000
vt -14.488887 3.882286 0.000000
vt 15.000000 0.000000 0.000000
vt -15.000000 0.000000 0.000000
vt 14.488887 -3.882286 0.000000
vt -14.488887 -3.882286 0.000000
vt 12.990381 -7.500000 0.000000
vt -12.990381 -7.500000 0.000000
vt 10.606602 -10.606602 0.000000
vt -10.606602 -10.606602 0.000000
vt 7.500000 -12.990381 0.000000
vt -7.500000 -12.990381 0.000000
vt 3.882286 -14.488887 0.000000
vt -3.882286 -14.488887 0.000000
vt -0.000000 -15.000000 0.000000
vt -12.990381 7.500000 0.000000
vt 12.990381 7.500000 0.000000
vt -10.606602 10.606602 0.000000
vt 10.606602 10.606602 0.000000
vt -7.500000 12.990381 0.000000
vt 7.500000 12.990381 0.000000
vt -3.882286 14.488887 0.000000
vt 3.882286 14.488887 0.000000
vt 0.000000 15.000000 0.000000
vt 0.000000 0.000000 0.000000
vt 100.000000 0.000000 0.000000
vt 0.000000 5.000000 0.000000
vt 100.000000 5.000000 0.000000
vt 0.000000 0.000000 0.000000
vt 100.000000 0.000000 0.000000
vt 0.000000 5.000000 0.000000
vt 100.000000 5.000000 0.000000
vt -0.000000 0.000000 0.000000
vt 100.000000 0.000000 0.000000
vt -0.000000 5.000000 0.000000
vt 100.000000 5.000000 0.000000
vt -0.000000 0.000000 0.000000
vt 100.000000 0.000000 0.000000
vt -0.000000 5.000000 0.000000
vt 100.000000 5.000000 0.000000
vt 50.000000 50.000000 0.000000
vt -50.000000 50.000000 0.000000
vt 50.000000 -50.000000 0.000000
vt -50.000000 -50.000000 0.000000
vt -19.934348 -0.319367 0.000000
vt -14.912353 -0.319454 0.000000
vt -19.931821 0.000000 0.000000
vt -14.908974 0.000000 0.000000
vt -19.934348 0.319367 0.000000
vt -14.912353 0.319454 0.000000
vt -14.922349 0.648204 0.000000
vt -19.941825 -0.648095 0.000000
vt -14.922349 -0.648204 0.000000
vt -19.953074 -0.976747 0.000000
vt -14.937379 -0.976820 0.000000
vt -19.965940 -1.295906 0.000000
vt -14.954556 -1.295904 0.000000
vt -14.971714 -1.614988 0.000000
vt -19.978797 -1.615065 0.000000
vt -14.986694 -1.943607 0.000000
vt -19.990026 -1.943718 0.000000
vt -14.996640 -2.272359 0.000000
vt -19.997482 -2.272446 0.000000
vt -15.000000 -2.591814 0.000000
vt -20.000000 -2.591814 0.000000
vt -19.997482 -2.911181 0.000000
vt -14.996640 -2.911269 0.000000
vt -19.990026 -3.239909 0.000000
vt -14.986694 -3.240021 0.000000
vt -19.978797 -3.568562 0.000000
vt -14.971714 -3.568640 0.000000
vt -19.965940 -3.887722 0.000000
vt -14.954556 -3.887724 0.000000
vt -19.953074 -4.206881 0.000000
vt -14.937379 -4.206808 0.000000
vt -19.941825 -4.535533 0.000000
vt -14.922349 -4.535424 0.000000
vt -19.934348 -4.864261 0.000000
vt -14.912353 -4.864174 0.000000
vt -14.908974 -5.183628 0.000000
vt -19.931821 -5.183628 0.000000
vt -14.908974 5.183628 0.000000
vt -19.931821 5.183628 0.000000
vt -14.912353 4.864174 0.000000
vt -19.934348 4.864261 0.000000
vt -19.941825 4.535533 0.000000
vt -14.922349 4.535424 0.000000
vt -19.953074 4.206881 0.000000
vt -14.937379 4.206808 0.000000
vt -19.965940 3.887722 0.000000
vt -14.954556 3.887724 0.000000
vt -14.971714 3.568640 0.000000
vt -19.978797 3.568562 0.000000
vt -14.986694 3.240021 0.000000
vt -19.990026 3.239909 0.000000
vt -14.996640 2.911269 0.000000
vt -19.997482 2.911181 0.000000
vt -15.000000 2.591814 0.000000
vt -20.000000 2.591814 0.000000
vt -19.997482 2.272446 0.000000
vt -14.996640 2.272359 0.000000
vt -19.990026 1.943718 0.000000
vt -14.986694 1.943607 0.000000
vt -19.978797 1.615065 0.000000
vt -14.971714 1.614988 0.000000
vt -19.965940 1.295906 0.000000
vt -14.954556 1.295904 0.000000
vt -19.953074 0.976747 0.000000
vt -14.937379 0.976820 0.000000
vt -19.941825 0.648095 0.000000
vt 14.912353 -0.319454 0.000000
vt 19.934348 -0.319367 0.000000
vt 14.908974 -0.000000 0.000000
vt 19.931821 -0.000000 0.000000
vt 19.934348 0.319367 0.000000
vt 14.922349 -0.648204 0.000000
vt 19.941825 -0.648095 0.000000
vt 14.937379 -0.976820 0.000000
vt 19.953074 -0.976747 0.000000
vt 19.965940 -1.295906 0.000000
vt 14.954556 -1.295904 0.000000
vt 14.971714 -1.614988 0.000000
vt 19.978797 -1.615065 0.000000
vt 14.986694 -1.943607 0.000000
vt 19.990026 -1.943718 0.000000
vt 14.996640 -2.272359 0.000000
vt 19.997482 -2.272446 0.000000
vt 15.000000 -2.591814 0.000000
vt 20.000000 -2.591814 0.000000
vt 19.997482 -2.911181 0.000000
vt 14.996640 -2.911269 0.000000
vt 19.990026 -3.239909 0.000000
vt 14.986694 -3.240021 0.000000
vt 19.978797 -3.568562 0.000000
vt 14.971714 -3.568640 0.000000
vt 19.965940 -3.887722 0.000000
vt 14.954556 -3.887724 0.000000
vt 19.953074 -4.206881 0.000000
vt 14.937379 -4.206808 0.000000
vt 14.922349 -4.535424 0.000000
vt 19.941825 -4.535533 0.000000
vt 14.912353 -4.864174 0.000000
vt 19.934348 -4.864261 0.000000
vt 14.908974 -5.183628 0.000000
vt 19.931821 -5.183628 0.000000
vt 19.931821 5.183628 0.000000
vt 14.908974 5.183628 0.000000
vt 19.934348 4.864261 0.000000
vt 14.912353 4.864174 0.000000
vt 14.922349 4.535424 0.000000
vt 19.941825 4.535533 0.000000
vt 14.937379 4.206808 0.000000
vt 19.953074 4.206881 0.000000
vt 19.965940 3.887722 0.000000
vt 14.954556 3.887724 0.000000
vt 14.971714 3.568640 0.000000
vt 19.978797 3.568562 0.000000
vt 14.986694 3.240021 0.000000
vt 19.990026 3.239909 0.000000
vt 14.996640 2.911269 0.000000
vt 19.997482 2.911181 0.000000
vt 15.000000 2.591814 0.000000
vt 20.000000 2.591814 0.000000
vt 19.997482 2.272446 0.000000
vt 14.996640 2.272359 0.000000
vt 19.990026 1.943718 0.000000
vt 14.986694 1.943607 0.000000
vt 19.978797 1.615065 0.000000
vt 14.971714 1.614988 0.000000
vt 19.965940 1.295906 0.000000
vt 14.954556 1.295904 0.000000
vt 19.953074 0.976747 0.000000
vt 14.937379 0.976820 0.000000
vt 14.922349 0.648204 0.000000
vt 19.941825 0.648095 0.000000
vt 14.912353 0.319454 0.000000
vt -19.934348 4.864261 0.000000
vt -14.912353 4.864174 0.000000
vt -19.931821 5.183628 0.000000
vt -14.908974 5.183628 0.000000
vt -19.931821 -5.183628 0.000000
vt -14.908974 -5.183628 0.000000
vt -19.934348 -4.864261 0.000000
vt -14.912353 -4.864174 0.000000
vt -14.922349 -4.535424 0.000000
vt -19.941825 4.535533 0.000000
vt -14.922349 4.535424 0.000000
vt -19.953074 4.206881 0.000000
vt -14.937379 4.206808 0.000000
vt -19.965940 3.887722 0.000000
vt -14.954556 3.887724 0.000000
vt -14.971714 3.568640 0.000000
vt -19.978797 3.568562 0.000000
vt -14.986694 3.240021 0.000000
vt -19.990026 3.239909 0.000000
vt -14.996640 2.911269 0.000000
vt -19.997482 2.911181 0.000000
vt -15.000000 2.591814 0.000000
vt -20.000000 2.591814 0.000000
vt -19.997482 2.272446 0.000000
vt -14.996640 2.272359 0.000000
vt -19.990026 1.943718 0.000000
vt -14.986694 1.943607 0.000000
vt -19.978797 1.615065 0.000000
vt -14.971714 1.614988 0.000000
vt -19.965940 1.295906 0.000000
vt -14.954556 1.295904 0.000000
vt -19.953074 0.976747 0.000000
vt -14.937379 0.976820 0.000000
vt -19.941825 0.648095 0.000000
vt -14.922349 0.648204 0.000000
vt -19.934348 0.319367 0.000000
vt -14.912353 0.319454 0.000000
vt -14.908974 0.000000 0.000000
vt -19.931821 0.000000 0.000000
vt -14.912353 -0.319454 0.000000
vt -19.934348 -0.319367 0.000000
vt -19.941825 -0.648095 0.000000
vt -14.922349 -0.648204 0.000000
vt -19.953074 -0.976747 0.000000
vt -14.937379 -0.976820 0.000000
vt -19.965940 -1.295906 0.000000
vt -14.954556 -1.295904 0.000000
vt -14.971714 -1.614988 0.000000
vt -19.978797 -1.615065 0.000000
vt -14.986694 -1.943607 0.000000
vt -19.990026 -1.943718 0.000000
vt -14.996640 -2.272359 0.000000
vt -19.997482 -2.272446 0.000000
vt -15.000000 -2.591814 0.000000
vt -20.000000 -2.591814 0.000000
vt -19.997482 -2.911181 0.000000
vt -14.996640 -2.911269 0.000000
vt -19.990026 -3.239909 0.000000
vt -14.986694 -3.240021 0.000000
vt -19.978797 -3.568562 0.000000
vt -14.971714 -3.568640 0.000000
vt -19.965940 -3.887722 0.000000
vt -14.954556 -3.887724 0.000000
vt -19.953074 -4.206881 0.000000
vt -14.937379 -4.206808 0.000000
vt -19.941825 -4.535533 0.000000
vt 14.912353 4.864174 0.000000
vt 19.934348 4.864261 0.000000
vt 14.908974 5.183628 0.000000
vt 19.931821 5.183628 0.000000
vt 14.908974 -5.183628 0.000000
vt 19.931821 -5.183628 0.000000
vt 19.934348 -4.864261 0.000000
vt 14.922349 4.535424 0.000000
vt 19.941825 4.535533 0.000000
vt 14.937379 4.206808 0.000000
vt 19.953074 4.206881 0.000000
vt 19.965940 3.887722 0.000000
vt 14.954556 3.887724 0.000000
vt 14.971714 3.568640 0.000000
vt 19.978797 3.568562 0.000000
vt 14.986694 3.240021 0.000000
vt 19.990026 3.239909 0.000000
vt 14.996640 2.911269 0.000000
vt 19.997482 2.911181 0.000000
vt 15.000000 2.591814 0.000000
vt 20.000000 2.591814 0.000000
vt 19.997482 2.272446 0.000000
vt 14.996640 2.272359 0.000000
vt 19.990026 1.943718 0.000000
vt 14.986694 1.943607 0.000000
vt 19.978797 1.615065 0.000000
vt 14.971714 1.614988 0.000000
vt 19.965940 1.295906 0.000000
vt 14.954556 1.295904 0.000000
vt 19.953074 0.976747 0.000000
vt 14.937379 0.976820 0.000000
vt 14.922349 0.648204 0.000000
vt 19.941825 0.648095 0.000000
vt 14.912353 0.319454 0.000000
vt 19.934348 0.319367 0.000000
vt 14.908974 0.000000 0.000000
vt 19.931821 0.000000 0.000000
vt 19.934348 -0.319367 0.000000
vt 14.912353 -0.319454 0.000000
vt 14.922349 -0.648204 0.000000
vt 19.941825 -0.648095 0.000000
vt 14.937379 -0.976820 0.000000
vt 19.953074 -0.976747 0.000000
vt 19.965940 -1.295906 0.000000
vt 14.954556 -1.295904 0.000000
vt 14.971714 -1.614988 0.000000
vt 19.978797 -1.615065 0.000000
vt 14.986694 -1.943607 0.000000
vt 19.990026 -1.943718 0.000000
vt 14.996640 -2.272359 0.000000
vt 19.997482 -2.272446 0.000000
vt 15.000000 -2.591814 0.000000
vt 20.000000 -2.591814 0.000000
vt 19.997482 -2.911181 0.000000
vt 14.996640 -2.911269 0.000000
vt 19.990026 -3.239909 0.000000
vt 14.986694 -3.240021 0.000000
vt 19.978797 -3.568562 0.000000
vt 14.971714 -3.568640 0.000000
vt 19.965940 -3.887722 0.000000
vt 14.954556 -3.887724 0.000000
vt 19.953074 -4.206881 0.000000
vt 14.937379 -4.206808 0.000000
vt 14.922349 -4.535424 0.000000
vt 19.941825 -4.535533 0.000000
vt 14.912353 -4.864174 0.000000
vt -4.182566 1.622333 0.000000
vt 10.499991 3.926991 0.000000
vt -4.500028 1.653346 0.000000
vt -10.499991 3.926991 0.000000
vt -4.817491 1.622333 0.000000
vt -10.499991 0.000000 0.000000
vt -5.131688 1.526941 0.000000
vt -5.420781 1.371111 0.000000
vt -5.666752 1.167908 0.000000
vt -5.869228 0.921336 0.000000
vt -6.024333 0.631849 0.000000
vt -6.119200 0.317487 0.000000
vt -6.150028 0.000000 0.000000
vt -6.119200 -0.317487 0.000000
vt -6.024333 -0.631849 0.000000
vt -5.869228 -0.921336 0.000000
vt -5.666752 -1.167908 0.000000
vt -5.420781 -1.371111 0.000000
vt -10.499991 -3.926991 0.000000
vt -5.131688 -1.526941 0.000000
vt -4.817491 -1.622333 0.000000
vt -4.500028 -1.653346 0.000000
vt 10.499991 -3.926991 0.000000
vt -4.182566 -1.622333 0.000000
vt -3.868369 -1.526941 0.000000
vt -3.579276 -1.371111 0.000000
vt 10.499991 0.000000 0.000000
vt -3.333304 -1.167908 0.000000
vt -3.130829 -0.921336 0.000000
vt -2.975724 -0.631849 0.000000
vt -2.880857 -0.317487 0.000000
vt -2.850028 0.000000 0.000000
vt -2.880857 0.317487 0.000000
vt -2.975724 0.631849 0.000000
vt -3.130829 0.921336 0.000000
vt -3.333304 1.167908 0.000000
vt -3.579276 1.371111 0.000000
vt -3.868369 1.526941 0.000000
vt -4.817491 45.501557 0.000000
vt -10.499991 43.196899 0.000000
vt -4.500028 45.470544 0.000000
vt 10.499991 43.196899 0.000000
vt -4.182566 45.501557 0.000000
vt -3.868369 45.596949 0.000000
vt -3.579276 45.752779 0.000000
vt 10.499991 47.123890 0.000000
vt -3.333304 45.955982 0.000000
vt -3.130829 46.202553 0.000000
vt -2.975724 46.492041 0.000000
vt -2.880857 46.806403 0.000000
vt -2.850028 47.123890 0.000000
vt -2.850028 -47.123890 0.000000
vt 10.499991 -47.123890 0.000000
vt -2.880857 -46.806403 0.000000
vt -2.975724 -46.492041 0.000000
vt -3.130829 -46.202553 0.000000
vt -3.333304 -45.955982 0.000000
vt -3.579276 -45.752779 0.000000
vt -3.868369 -45.596949 0.000000
vt -4.182566 -45.501557 0.000000
vt 10.499991 -43.196899 0.000000
vt -4.500028 -45.470544 0.000000
vt -10.499991 -43.196899 0.000000
vt -4.817491 -45.501557 0.000000
vt -10.499991 -47.123890 0.000000
vt -5.131688 -45.596949 0.000000
vt -5.420781 -45.752779 0.000000
vt -5.666752 -45.955982 0.000000
vt -5.869228 -46.202553 0.000000
vt -6.024333 -46.492041 0.000000
vt -6.119200 -46.806403 0.000000
vt -6.150028 -47.123890 0.000000
vt -6.150028 47.123890 0.000000
vt -10.499991 47.123890 0.000000
vt -6.119200 46.806403 0.000000
vt -6.024333 46.492041 0.000000
vt -5.869228 46.202553 0.000000
vt -5.666752 45.955982 0.000000
vt -5.420781 45.752779 0.000000
vt -5.131688 45.596949 0.000000
vt -4.182547 25.184278 0.000000
vt 10.499991 27.488936 0.000000
vt -4.500009 25.215291 0.000000
vt -10.499991 27.488936 0.000000
vt -4.817471 25.184278 0.000000
vt -10.499991 23.561945 0.000000
vt -5.131668 25.088886 0.000000
vt -5.420762 24.933056 0.000000
vt -5.666733 24.729853 0.000000
vt -5.869208 24.483281 0.000000
vt -6.024314 24.193794 0.000000
vt -6.119181 23.879432 0.000000
vt -6.150009 23.561945 0.000000
vt -6.119181 23.244458 0.000000
vt -6.024314 22.930096 0.000000
vt -5.869208 22.640608 0.000000
vt -5.666733 22.394037 0.000000
vt -5.420762 22.190834 0.000000
vt -10.499991 19.634954 0.000000
vt -5.131668 22.035004 0.000000
vt -4.817471 21.939612 0.000000
vt -4.500009 21.908599 0.000000
vt 10.499991 19.634954 0.000000
vt -4.182547 21.939612 0.000000
vt -3.868350 22.035004 0.000000
vt -3.579257 22.190834 0.000000
vt 10.499991 23.561945 0.000000
vt -3.333285 22.394037 0.000000
vt -3.130810 22.640608 0.000000
vt -2.975705 22.930096 0.000000
vt -2.880838 23.244458 0.000000
vt -2.850009 23.561945 0.000000
vt -2.880838 23.879432 0.000000
vt -2.975705 24.193794 0.000000
vt -3.130810 24.483281 0.000000
vt -3.333285 24.729853 0.000000
vt -3.579257 24.933056 0.000000
vt -3.868350 25.088886 0.000000
vt -4.817471 -25.184278 0.000000
vt -10.499991 -27.488936 0.000000
vt -4.500009 -25.215291 0.000000
vt 10.499991 -27.488936 0.000000
vt -4.182547 -25.184278 0.000000
vt -3.868350 -25.088886 0.000000
vt -3.579257 -24.933056 0.000000
vt 10.499991 -23.561945 0.000000
vt -3.333285 -24.729853 0.000000
vt -3.130810 -24.483281 0.000000
vt -2.975705 -24.193794 0.000000
vt -2.880838 -23.879432 0.000000
vt -2.850009 -23.561945 0.000000
vt -2.880838 -23.244458 0.000000
vt -2.975705 -22.930096 0.000000
vt -3.130810 -22.640608 0.000000
vt -3.333285 -22.394037 0.000000
vt -3.579257 -22.190834 0.000000
vt -3.868350 -22.035004 0.000000
vt -4.182547 -21.939612 0.000000
vt 10.499991 -19.634954 0.000000
vt -4.500009 -21.908599 0.000000
vt -10.499991 -19.634954 0.000000
vt -4.817471 -21.939612 0.000000
vt -10.499991 -23.561945 0.000000
vt -5.131668 -22.035004 0.000000
vt -5.420762 -22.190834 0.000000
vt -5.666733 -22.394037 0.000000
vt -5.869208 -22.640608 0.000000
vt -6.024314 -22.930096 0.000000
vt -6.119181 -23.244458 0.000000
vt -6.150009 -23.561945 0.000000
vt -6.119181 -23.879432 0.000000
vt -6.024314 -24.193794 0.000000
vt -5.869208 -24.483281 0.000000
vt -5.666733 -24.729853 0.000000
vt -5.420762 -24.933056 0.000000
vt -5.131668 -25.088886 0.000000
vt -10.499991 7.853982 0.000000
vt 10.499991 7.853982 0.000000
vt -10.499991 11.780972 0.000000
vt 10.499991 11.780972 0.000000
vt -10.499991 15.707963 0.000000
vt 10.499991 15.707963 0.000000
vt -10.499991 31.415927 0.000000
vt 10.499991 31.415927 0.000000
vt -10.499991 35.342917 0.000000
vt 10.499991 35.342917 0.000000
vt -10.499991 39.269908 0.000000
vt 10.499991 39.269908 0.000000
vt -10.499991 -39.269908 0.000000
vt 10.499991 -39.269908 0.000000
vt -10.499991 -35.342917 0.000000
vt 10.499991 -35.342917 0.000000
vt -10.499991 -31.415927 0.000000
vt 10.499991 -31.415927 0.000000
vt -10.499991 -15.707963 0.000000
vt 10.499991 -15.707963 0.000000
vt -10.499991 -11.780972 0.000000
vt 10.499991 -11.780972 0.000000
vt -10.499991 -7.853982 0.000000
vt 10.499991 -7.853982 0.000000
vt 2.500007 4.319690 0.000000
vt -2.500007 4.146902 0.000000
vt 2.500007 0.000000 0.000000
vt -2.500007 0.000000 0.000000
vt -2.500007 -4.146902 0.000000
vt -2.500007 8.293805 0.000000
vt 2.500007 8.639380 0.000000
vt -2.500007 12.440707 0.000000
vt 2.500007 12.959070 0.000000
vt -2.500007 16.587609 0.000000
vt 2.500007 17.278760 0.000000
vt -2.500007 20.734512 0.000000
vt 2.500007 21.598449 0.000000
vt -2.500007 24.881414 0.000000
vt 2.500007 25.918139 0.000000
vt -2.500007 29.028316 0.000000
vt 2.500007 30.237829 0.000000
vt -2.500007 33.175218 0.000000
vt 2.500007 34.557519 0.000000
vt -2.500007 37.322121 0.000000
vt 2.500007 38.877209 0.000000
vt -2.500007 41.469023 0.000000
vt 2.500007 43.196899 0.000000
vt -2.500007 45.615925 0.000000
vt 2.500007 47.516589 0.000000
vt -2.500007 49.762828 0.000000
vt 2.500007 51.836279 0.000000
vt -2.500007 53.909730 0.000000
vt -2.500007 -49.762828 0.000000
vt 2.500007 -51.836279 0.000000
vt 2.500007 -47.516589 0.000000
vt -2.500007 -45.615925 0.000000
vt 2.500007 -43.196899 0.000000
vt -2.500007 -41.469023 0.000000
vt 2.500007 -38.877209 0.000000
vt -2.500007 -37.322121 0.000000
vt 2.500007 -34.557519 0.000000
vt -2.500007 -33.175218 0.000000
vt 2.500007 -30.237829 0.000000
vt -2.500007 -29.028316 0.000000
vt 2.500007 -25.918139 0.000000
vt -2.500007 -24.881414 0.000000
vt 2.500007 -21.598449 0.000000
vt -2.500007 -20.734512 0.000000
vt 2.500007 -17.278760 0.000000
vt -2.500007 -16.587609 0.000000
vt 2.500007 -12.959070 0.000000
vt -2.500007 -12.440707 0.000000
vt 2.500007 -8.639380 0.000000
vt -2.500007 -8.293805 0.000000
vt 2.500007 -4.319690 0.000000
vt 2.565503 4.476418 0.000000
vt 0.539103 4.612317 0.000000
vt 2.000000 -0.000000 0.000000
vt 0.000000 0.000000 0.000000
vt 0.539103 -4.612317 0.000000
vt 2.127347 8.975984 0.000000
vt 4.226480 8.671566 0.000000
vt 4.679111 12.855752 0.000000
vt 6.878565 12.321848 0.000000
vt 8.056828 16.042464 0.000000
vt 10.355118 15.197903 0.000000
vt 12.078405 18.364322 0.000000
vt 14.437694 17.119017 0.000000
vt 16.527036 19.696155 0.000000
vt 18.869771 17.964481 0.000000
vt 21.162897 19.966163 0.000000
vt 23.372864 17.681171 0.000000
vt 25.736065 19.159790 0.000000
vt 27.664027 16.286887 0.000000
vt 30.000000 17.320508 0.000000
vt 31.473632 13.869238 0.000000
vt 33.724833 14.547473 0.000000
vt 34.562306 10.580135 0.000000
vt 36.709756 10.990180 0.000000
vt 36.735977 6.626242 0.000000
vt 38.793852 6.840403 0.000000
vt 37.858065 2.255998 0.000000
vt 39.864767 2.321858 0.000000
vt 39.864767 -2.321858 0.000000
vt 37.858065 -2.255998 0.000000
vt 38.793852 -6.840403 0.000000
vt 36.735977 -6.626242 0.000000
vt 36.709756 -10.990180 0.000000
vt 34.562306 -10.580135 0.000000
vt 33.724833 -14.547473 0.000000
vt 31.473632 -13.869238 0.000000
vt 30.000000 -17.320508 0.000000
vt 27.664027 -16.286887 0.000000
vt 25.736065 -19.159790 0.000000
vt 23.372864 -17.681171 0.000000
vt 21.162897 -19.966163 0.000000
vt 18.869771 -17.964481 0.000000
vt 16.527036 -19.696155 0.000000
vt 14.437694 -17.119017 0.000000
vt 12.078405 -18.364322 0.000000
vt 10.355118 -15.197903 0.000000
vt 8.056828 -16.042464 0.000000
vt 6.878565 -12.321848 0.000000
vt 4.679111 -12.855752 0.000000
vt 4.226480 -8.671566 0.000000
vt 2.127347 -8.975984 0.000000
vt 2.565503 -4.476418 0.000000
vt -5.000000 26.761715 0.000000
vt 1.579308 30.045612 0.000000
vt -5.000000 31.415927 0.000000
vt 1.333275 30.248537 0.000000
vt 1.130758 30.494908 0.000000
vt -5.000000 22.107504 0.000000
vt 12.500000 23.271057 0.000000
vt 12.500000 27.925268 0.000000
vt 2.500000 29.764049 0.000000
vt 2.817377 29.794964 0.000000
vt 3.131558 29.890100 0.000000
vt 3.420692 30.045612 0.000000
vt 3.666726 30.248537 0.000000
vt 12.500000 32.579479 0.000000
vt 3.869242 30.494908 0.000000
vt 4.024347 30.784263 0.000000
vt 4.119189 31.098536 0.000000
vt 4.150000 31.415927 0.000000
vt 4.119189 31.733317 0.000000
vt 4.024347 32.047590 0.000000
vt 3.869242 32.336945 0.000000
vt 3.666726 32.583316 0.000000
vt 3.420692 32.786241 0.000000
vt 3.131558 32.941753 0.000000
vt 2.817377 33.036889 0.000000
vt 2.500000 33.067804 0.000000
vt 12.500000 37.233691 0.000000
vt -5.000000 36.070138 0.000000
vt -5.000000 40.724349 0.000000
vt 12.500000 41.887902 0.000000
vt -5.000000 45.378561 0.000000
vt 12.500000 46.542113 0.000000
vt -5.000000 50.032772 0.000000
vt 12.500000 51.196325 0.000000
vt -5.000000 54.686983 0.000000
vt 12.500000 55.850536 0.000000
vt -5.000000 59.341195 0.000000
vt 12.500000 60.504747 0.000000
vt 2.500019 61.179976 0.000000
vt 2.817396 61.210890 0.000000
vt 3.131577 61.306026 0.000000
vt 3.420711 61.461538 0.000000
vt 3.666745 61.664463 0.000000
vt 3.869261 61.910834 0.000000
vt 4.024366 62.200189 0.000000
vt 4.119208 62.514463 0.000000
vt 4.150019 62.831853 0.000000
vt 4.150019 -62.831853 0.000000
vt 12.500000 -65.158959 0.000000
vt 12.500000 -60.504747 0.000000
vt 4.119208 -62.514463 0.000000
vt 4.024366 -62.200189 0.000000
vt 3.869261 -61.910834 0.000000
vt 3.666745 -61.664463 0.000000
vt 3.420711 -61.461538 0.000000
vt 3.131577 -61.306026 0.000000
vt 2.817396 -61.210890 0.000000
vt 2.500019 -61.179976 0.000000
vt -5.000000 -61.668300 0.000000
vt 2.182642 -61.210890 0.000000
vt 1.868461 -61.306026 0.000000
vt 1.579327 -61.461538 0.000000
vt 1.333294 -61.664463 0.000000
vt 1.130777 -61.910834 0.000000
vt 1.130777 63.752872 0.000000
vt -5.000000 63.995406 0.000000
vt 0.975672 63.463517 0.000000
vt 0.880831 63.149243 0.000000
vt 0.850019 62.831853 0.000000
vt 0.880831 62.514463 0.000000
vt 0.975672 62.200189 0.000000
vt 1.130777 61.910834 0.000000
vt 1.333294 61.664463 0.000000
vt 1.579327 61.461538 0.000000
vt 1.868461 61.306026 0.000000
vt 2.182642 61.210890 0.000000
vt 12.500000 18.616845 0.000000
vt -5.000000 17.453293 0.000000
vt 12.500000 13.962634 0.000000
vt -5.000000 12.799081 0.000000
vt 12.500000 9.308423 0.000000
vt -5.000000 8.144870 0.000000
vt 12.500000 4.654211 0.000000
vt -5.000000 3.490659 0.000000
vt 2.500019 1.651877 0.000000
vt 2.182642 1.620963 0.000000
vt 1.868461 1.525827 0.000000
vt 1.579327 1.370315 0.000000
vt 1.333294 1.167390 0.000000
vt -5.000000 -1.163553 0.000000
vt 1.130777 0.921019 0.000000
vt 0.975672 0.631664 0.000000
vt 0.880831 0.317390 0.000000
vt 0.850019 0.000000 0.000000
vt 0.880831 -0.317390 0.000000
vt 0.975672 -0.631664 0.000000
vt 1.130777 -0.921019 0.000000
vt 1.333294 -1.167390 0.000000
vt 1.579327 -1.370315 0.000000
vt 1.868461 -1.525827 0.000000
vt 2.182642 -1.620963 0.000000
vt -5.000000 -5.817764 0.000000
vt 2.500019 -1.651877 0.000000
vt 12.500000 -4.654211 0.000000
vt 2.817396 -1.620963 0.000000
vt 12.500000 0.000000 0.000000
vt 3.131577 -1.525827 0.000000
vt 3.420711 -1.370315 0.000000
vt 3.666745 -1.167390 0.000000
vt 3.869261 -0.921019 0.000000
vt 4.024366 -0.631664 0.000000
vt 4.119208 -0.317390 0.000000
vt 4.150019 0.000000 0.000000
vt 4.119208 0.317390 0.000000
vt 4.024366 0.631664 0.000000
vt 3.869261 0.921019 0.000000
vt 3.666745 1.167390 0.000000
vt 3.420711 1.370315 0.000000
vt 3.131577 1.525827 0.000000
vt 2.817396 1.620963 0.000000
vt 12.500000 -9.308423 0.000000
vt -5.000000 -10.471976 0.000000
vt 12.500000 -13.962634 0.000000
vt -5.000000 -15.126187 0.000000
vt 12.500000 -18.616845 0.000000
vt -5.000000 -19.780398 0.000000
vt 12.500000 -23.271057 0.000000
vt -5.000000 -24.434610 0.000000
vt 12.500000 -27.925268 0.000000
vt -5.000000 -29.088821 0.000000
vt 2.500000 -29.764049 0.000000
vt 2.182623 -29.794964 0.000000
vt 1.868442 -29.890100 0.000000
vt 1.579308 -30.045612 0.000000
vt 1.333275 -30.248537 0.000000
vt 1.130758 -30.494908 0.000000
vt 0.975653 -30.784263 0.000000
vt 0.880811 -31.098536 0.000000
vt 0.850000 -31.415927 0.000000
vt -5.000000 -33.743032 0.000000
vt 0.880811 -31.733317 0.000000
vt 0.975653 -32.047590 0.000000
vt 1.130758 -32.336945 0.000000
vt 1.333275 -32.583316 0.000000
vt 1.579308 -32.786241 0.000000
vt 1.868442 -32.941753 0.000000
vt 2.182623 -33.036889 0.000000
vt 2.500000 -33.067804 0.000000
vt 12.500000 -32.579479 0.000000
vt 2.817377 -33.036889 0.000000
vt 3.131558 -32.941753 0.000000
vt 3.420692 -32.786241 0.000000
vt 3.666726 -32.583316 0.000000
vt 3.869242 -32.336945 0.000000
vt 4.024347 -32.047590 0.000000
vt 4.119189 -31.733317 0.000000
vt 4.150000 -31.415927 0.000000
vt 4.119189 -31.098536 0.000000
vt 4.024347 -30.784263 0.000000
vt 3.869242 -30.494908 0.000000
vt 3.666726 -30.248537 0.000000
vt 3.420692 -30.045612 0.000000
vt 3.131558 -29.890100 0.000000
vt 2.817377 -29.794964 0.000000
vt 12.500000 -37.233691 0.000000
vt -5.000000 -38.397244 0.000000
vt 12.500000 -41.887902 0.000000
vt -5.000000 -43.051455 0.000000
vt 12.500000 -46.542113 0.000000
vt -5.000000 -47.705666 0.000000
vt 12.500000 -51.196325 0.000000
vt -5.000000 -52.359878 0.000000
vt 12.500000 -55.850536 0.000000
vt -5.000000 -57.014089 0.000000
vt 2.182623 33.036889 0.000000
vt 1.868442 32.941753 0.000000
vt 1.579308 32.786241 0.000000
vt 1.333275 32.583316 0.000000
vt 1.130758 32.336945 0.000000
vt 0.975653 32.047590 0.000000
vt 0.880811 31.733317 0.000000
vt 0.850000 31.415927 0.000000
vt 0.880811 31.098536 0.000000
vt 0.975653 30.784263 0.000000
vt 2.182623 29.794964 0.000000
vt 1.868442 29.890100 0.000000
vn -0.172993 0.813868 -0.554700
vn -0.000000 0.832050 -0.554700
vn -0.000000 0.832050 -0.554700
vn 0.172993 0.813868 -0.554700
vn 0.191884 0.809622 -0.554700
vn 0.338425 0.760116 -0.554700
vn 0.373423 0.743547 -0.554700
vn 0.489067 0.673143 -0.554700
vn 0.534832 0.637388 -0.554700
vn 0.618334 0.556750 -0.554700
vn 0.667407 0.496866 -0.554700
vn 0.720577 0.416025 -0.554700
vn 0.764002 0.329558 -0.554700
vn 0.791327 0.257118 -0.554700
vn 0.819410 0.144484 -0.554700
vn 0.827492 0.086973 -0.554700
vn 0.830643 -0.048379 -0.554700
vn 0.827492 -0.086973 -0.554700
vn 0.797095 -0.238635 -0.554700
vn 0.791327 -0.257118 -0.554700
vn 0.720577 -0.416025 -0.554700
vn 0.720577 -0.416025 -0.554700
vn 0.618334 -0.556750 -0.554700
vn 0.605211 -0.570988 -0.554700
vn 0.489067 -0.673143 -0.554700
vn 0.457219 -0.695168 -0.554700
vn 0.338425 -0.760116 -0.554700
vn 0.284578 -0.781872 -0.554700
vn 0.172993 -0.813868 -0.554700
vn 0.096595 -0.826424 -0.554700
vn 0.000000 -0.832050 -0.554700
vn -0.096595 -0.826424 -0.554700
vn -0.172993 -0.813868 -0.554700
vn -0.284578 -0.781872 -0.554700
vn -0.338425 -0.760116 -0.554700
vn -0.457219 -0.695168 -0.554700
vn -0.489067 -0.673143 -0.554700
vn -0.605211 -0.570988 -0.554700
vn -0.618334 -0.556750 -0.554700
vn -0.720577 -0.416025 -0.554700
vn -0.720577 -0.416025 -0.554700
vn -0.791327 -0.257118 -0.554700
vn -0.797095 -0.238635 -0.554700
vn -0.827492 -0.086973 -0.554700
vn -0.830643 -0.048379 -0.554700
vn -0.827492 0.086973 -0.554700
vn -0.819410 0.144484 -0.554700
vn -0.791327 0.257118 -0.554700
vn -0.764002 0.329558 -0.554700
vn -0.720577 0.416025 -0.554700
vn -0.667407 0.496866 -0.554700
vn -0.618334 0.556750 -0.554700
vn -0.534832 0.637388 -0.554700
vn -0.489067 0.673143 -0.554700
vn -0.373423 0.743547 -0.554700
vn -0.338425 0.760116 -0.554700
vn -0.191884 0.809622 -0.554700
vn -0.000000 -0.000000 -1.000000
vn -0.000000 -0.000000 -1.000000
vn -0.000000 -0.000000 -1.000000
vn -0.000000 -0.000000 -1.000000
vn -0.000000 -0.000000 -1.000000
vn -0.000000 -0.000000 -1.000000
vn -0.000000 -0.000000 -1.000000
vn -0.000000 -0.000000 -1.000000
vn -0.000000 -0.000000 -1.000000
vn -0.000000 -0.000000 -1.000000
vn -0.000000 -0.000000 -1.000000
vn -0.000000 -0.000000 -1.000000
vn -0.000000 -0.000000 -1.000000
vn -0.000000 -0.000000 -1.000000
vn -0.000000 -0.000000 -1.000000
vn -0.000000 -0.000000 -1.000000
vn -0.000000 -0.000000 -1.000000
vn -0.000000 -0.000000 -1.000000
vn -0.000000 -0.000000 -1.000000
vn -0.000000 -0.000000 -1.000000
vn -0.000000 -0.000000 -1.000000
vn -0.000000 -0.000000 -1.000000
vn -0.000000 -0.000000 -1.000000
vn -0.000000 -0.000000 -1.000000
vn -0.000000 -0.000000 -1.000000
vn -0.000000 -0.000000 -1.000000
vn -0.000000 -0.000000 -1.000000
vn -0.000000 -0.000000 -1.000000
vn -0.000000 -0.000000 -1.000000
vn -0.000000 -0.000000 -1.000000
vn -0.000000 -0.000000 -1.000000
vn -0.000000 -0.000000 -1.000000
vn -0.000000 -0.000000 -1.000000
vn -0.000000 -0.000000 -1.000000
vn -0.000000 -0.000000 -1.000000
vn -0.000000 -0.000000 -1.000000
vn -0.000000 -0.000000 -1.000000
vn -0.000000 -0.000000 -1.000000
vn -0.000000 -0.000000 -1.000000
vn -0.000000 -0.000000 -1.000000
vn -0.000000 -0.000000 -1.000000
vn -0.000000 -0.000000 -1.000000
vn -0.000000 -0.000000 -1.000000
vn -0.000000 -0.000000 -1.000000
vn -0.000000 -0.000000 -1.000000
vn -0.000000 -0.000000 -1.000000
vn -0.000000 -0.000000 -1.000000
vn -0.000000 -0.000000 -1.000000
vn -0.000000 -0.000000 -1.000000
vn -0.000000 -0.000000 -1.000000
vn -0.000000 -0.000000 -1.000000
vn -0.000000 -0.000000 -1.000000
vn -0.000000 -0.000000 -1.000000
vn -0.000000 -0.000000 -1.000000
vn -0.000000 -0.000000 -1.000000
vn -0.000000 -0.000000 -1.000000
vn -0.000000 -0.000000 -1.000000
vn -0.000000 -0.000000 -1.000000
vn 1.000000 0.000000 -0.000000
vn 1.000000 0.000000 -0.000000
vn 1.000000 0.000000 -0.000000
vn 1.000000 0.000000 -0.000000
vn 0.000000 -1.000000 0.000000
vn 0.000000 -1.000000 0.000000
vn 0.000000 -1.000000 0.000000
vn 0.000000 -1.000000 0.000000
vn -1.000000 0.000000 0.000000
vn -1.000000 0.000000 0.000000
vn -1.000000 0.000000 0.000000
vn -1.000000 0.000000 0.000000
vn 0.000000 1.000000 0.000000
vn 0.000000 1.000000 0.000000
vn 0.000000 1.000000 0.000000
vn 0.000000 1.000000 0.000000
vn 0.000000 0.000000 1.000000
vn 0.000000 0.000000 1.000000
vn 0.000000 0.000000 1.000000
vn 0.000000 0.000000 1.000000
vn 0.000000 -0.981326 0.192350
vn 0.000000 -0.981316 0.192401
vn 0.000000 -1.000000 0.000000
vn 0.000000 -1.000000 0.000000
vn 0.000000 -0.981326 -0.192350
vn 0.000000 -0.981316 -0.192401
vn 0.000000 -0.923821 -0.382824
vn 0.000000 -0.923847 0.382762
vn 0.000000 -0.923821 0.382824
vn 0.000000 -0.829844 0.557995
vn 0.000000 -0.829819 0.558032
vn 0.000000 -0.707107 0.707106
vn 0.000000 -0.707108 0.707105
vn 0.000000 -0.558035 0.829818
vn 0.000000 -0.557996 0.829844
vn 0.000000 -0.382825 0.923821
vn 0.000000 -0.382763 0.923847
vn 0.000000 -0.192402 0.981316
vn 0.000000 -0.192350 0.981326
vn 0.000000 -0.000000 1.000000
vn -0.000000 0.000000 1.000000
vn -0.000000 0.192350 0.981326
vn -0.000000 0.192402 0.981316
vn -0.000000 0.382763 0.923847
vn -0.000000 0.382825 0.923821
vn -0.000000 0.557996 0.829844
vn -0.000000 0.558035 0.829818
vn -0.000000 0.707107 0.707106
vn -0.000000 0.707108 0.707105
vn -0.000000 0.829844 0.557995
vn -0.000000 0.829819 0.558032
vn -0.000000 0.923847 0.382762
vn -0.000000 0.923821 0.382824
vn -0.000000 0.981326 0.192350
vn -0.000000 0.981316 0.192401
vn -0.000000 1.000000 0.000000
vn -0.000000 1.000000 0.000000
vn 0.000000 0.981316 -0.192401
vn 0.000000 0.981326 -0.192350
vn 0.000000 0.923847 -0.382762
vn 0.000000 0.923821 -0.382824
vn 0.000000 0.829844 -0.557995
vn 0.000000 0.829819 -0.558032
vn 0.000000 0.707107 -0.707106
vn 0.000000 0.707108 -0.707105
vn 0.000000 0.558035 -0.829818
vn 0.000000 0.557996 -0.829844
vn 0.000000 0.382825 -0.923821
vn 0.000000 0.382763 -0.923847
vn 0.000000 0.192402 -0.981316
vn 0.000000 0.192350 -0.981326
vn 0.000000 -0.000000 -1.000000
vn 0.000000 -0.000000 -1.000000
vn 0.000000 -0.192350 -0.981326
vn 0.000000 -0.192402 -0.981316
vn 0.000000 -0.382763 -0.923847
vn 0.000000 -0.382825 -0.923821
vn 0.000000 -0.557996 -0.829844
vn 0.000000 -0.558035 -0.829818
vn 0.000000 -0.707107 -0.707106
vn 0.000000 -0.707108 -0.707105
vn 0.000000 -0.829844 -0.557995
vn 0.000000 -0.829819 -0.558032
vn 0.000000 -0.923847 -0.382762
vn 0.000000 -0.981316 0.192401
vn 0.000000 -0.981326 0.192350
vn 0.000000 -1.000000 0.000000
vn 0.000000 -1.000000 0.000000
vn 0.000000 -0.981326 -0.192350
vn 0.000000 -0.923821 0.382824
vn 0.000000 -0.923847 0.382762
vn 0.000000 -0.829819 0.558032
vn 0.000000 -0.829844 0.557995
vn 0.000000 -0.707107 0.707106
vn 0.000000 -0.707108 0.707105
vn 0.000000 -0.558035 0.829818
vn 0.000000 -0.557996 0.829844
vn 0.000000 -0.382825 0.923821
vn 0.000000 -0.382763 0.923847
vn 0.000000 -0.192402 0.981316
vn 0.000000 -0.192350 0.981326
vn 0.000000 -0.000000 1.000000
vn 0.000000 -0.000000 1.000000
vn -0.000000 0.192350 0.981326
vn -0.000000 0.192402 0.981316
vn -0.000000 0.382763 0.923847
vn -0.000000 0.382825 0.923821
vn -0.000000 0.557996 0.829844
vn -0.000000 0.558035 0.829818
vn -0.000000 0.707107 0.707106
vn -0.000000 0.707108 0.707105
vn -0.000000 0.829844 0.557995
vn -0.000000 0.829819 0.558032
vn -0.000000 0.923821 0.382824
vn -0.000000 0.923847 0.382762
vn -0.000000 0.981316 0.192401
vn -0.000000 0.981326 0.192350
vn -0.000000 1.000000 0.000000
vn -0.000000 1.000000 0.000000
vn 0.000000 0.981326 -0.192350
vn 0.000000 0.981316 -0.192401
vn 0.000000 0.923821 -0.382824
vn 0.000000 0.923847 -0.382762
vn 0.000000 0.829819 -0.558032
vn 0.000000 0.829844 -0.557995
vn 0.000000 0.707107 -0.707106
vn 0.000000 0.707108 -0.707105
vn 0.000000 0.558035 -0.829818
vn 0.000000 0.557996 -0.829844
vn 0.000000 0.382825 -0.923821
vn 0.000000 0.382763 -0.923847
vn 0.000000 0.192402 -0.981316
vn 0.000000 0.192350 -0.981326
vn 0.000000 -0.000000 -1.000000
vn 0.000000 -0.000000 -1.000000
vn 0.000000 -0.192350 -0.981326
vn 0.000000 -0.192402 -0.981316
vn 0.000000 -0.382763 -0.923847
vn 0.000000 -0.382825 -0.923821
vn 0.000000 -0.557996 -0.829844
vn 0.000000 -0.558035 -0.829818
vn 0.000000 -0.707107 -0.707106
vn 0.000000 -0.707108 -0.707105
vn 0.000000 -0.829844 -0.557995
vn 0.000000 -0.829819 -0.558032
vn 0.000000 -0.923821 -0.382824
vn 0.000000 -0.923847 -0.382762
vn 0.000000 -0.981316 -0.192401
vn 0.981326 -0.000000 0.192350
vn 0.981316 -0.000000 0.192401
vn 1.000000 -0.000000 0.000000
vn 1.000000 -0.000000 0.000000
vn 0.981326 0.000000 -0.192350
vn 0.981316 0.000000 -0.192401
vn 0.923821 0.000000 -0.382824
vn 0.923847 -0.000000 0.382762
vn 0.923821 -0.000000 0.382824
vn 0.829844 -0.000000 0.557995
vn 0.829819 -0.000000 0.558032
vn 0.707107 -0.000000 0.707106
vn 0.707108 -0.000000 0.707105
vn 0.558035 -0.000000 0.829818
vn 0.557996 -0.000000 0.829844
vn 0.382825 -0.000000 0.923821
vn 0.382763 -0.000000 0.923847
vn 0.192402 -0.000000 0.981316
vn 0.192350 -0.000000 0.981326
vn -0.000000 0.000000 1.000000
vn -0.000000 0.000000 1.000000
vn -0.192350 0.000000 0.981326
vn -0.192402 0.000000 0.981316
vn -0.382763 0.000000 0.923847
vn -0.382825 0.000000 0.923821
vn -0.557996 0.000000 0.829844
vn -0.558035 0.000000 0.829818
vn -0.707107 0.000000 0.707106
vn -0.707108 0.000000 0.707105
vn -0.829844 0.000000 0.557995
vn -0.829819 0.000000 0.558032
vn -0.923847 0.000000 0.382762
vn -0.923821 0.000000 0.382824
vn -0.981326 0.000000 0.192350
vn -0.981316 0.000000 0.192401
vn -1.000000 0.000000 0.000000
vn -1.000000 0.000000 0.000000
vn -0.981316 0.000000 -0.192401
vn -0.981326 0.000000 -0.192350
vn -0.923847 0.000000 -0.382762
vn -0.923821 0.000000 -0.382824
vn -0.829844 0.000000 -0.557995
vn -0.829819 0.000000 -0.558032
vn -0.707107 0.000000 -0.707106
vn -0.707108 0.000000 -0.707105
vn -0.558035 0.000000 -0.829818
vn -0.557996 0.000000 -0.829844
vn -0.382825 0.000000 -0.923821
vn -0.382763 0.000000 -0.923847
vn -0.192402 0.000000 -0.981316
vn -0.192350 0.000000 -0.981326
vn -0.000000 0.000000 -1.000000
vn 0.000000 0.000000 -1.000000
vn 0.192350 0.000000 -0.981326
vn 0.192402 0.000000 -0.981316
vn 0.382763 0.000000 -0.923847
vn 0.382825 0.000000 -0.923821
vn 0.557996 0.000000 -0.829844
vn 0.558035 0.000000 -0.829818
vn 0.707107 0.000000 -0.707106
vn 0.707108 0.000000 -0.707105
vn 0.829844 0.000000 -0.557995
vn 0.829819 0.000000 -0.558032
vn 0.923847 0.000000 -0.382762
vn 0.981316 -0.000000 0.192401
vn 0.981326 -0.000000 0.192350
vn 1.000000 -0.000000 0.000000
vn 1.000000 -0.000000 0.000000
vn 0.981326 0.000000 -0.192350
vn 0.923821 -0.000000 0.382824
vn 0.923847 -0.000000 0.382762
vn 0.829819 -0.000000 0.558032
vn 0.829844 -0.000000 0.557995
vn 0.707107 -0.000000 0.707106
vn 0.707108 -0.000000 0.707105
vn 0.558035 -0.000000 0.829818
vn 0.557996 -0.000000 0.829844
vn 0.382825 -0.000000 0.923821
vn 0.382763 -0.000000 0.923847
vn 0.192402 -0.000000 0.981316
vn 0.192350 -0.000000 0.981326
vn -0.000000 0.000000 1.000000
vn -0.000000 0.000000 1.000000
vn -0.192350 0.000000 0.981326
vn -0.192402 0.000000 0.981316
vn -0.382763 0.000000 0.923847
vn -0.382825 0.000000 0.923821
vn -0.557996 0.000000 0.829844
vn -0.558035 0.000000 0.829818
vn -0.707107 0.000000 0.707106
vn -0.707108 0.000000 0.707105
vn -0.829844 0.000000 0.557995
vn -0.829819 0.000000 0.558032
vn -0.923821 0.000000 0.382824
vn -0.923847 0.000000 0.382762
vn -0.981316 0.000000 0.192401
vn -0.981326 0.000000 0.192350
vn -1.000000 0.000000 0.000000
vn -1.000000 0.000000 0.000000
vn -0.981326 0.000000 -0.192350
vn -0.981316 0.000000 -0.192401
vn -0.923821 0.000000 -0.382824
vn -0.923847 0.000000 -0.382762
vn -0.829819 0.000000 -0.558032
vn -0.829844 0.000000 -0.557995
vn -0.707107 0.000000 -0.707106
vn -0.707108 0.000000 -0.707105
vn -0.558035 0.000000 -0.829818
vn -0.557996 0.000000 -0.829844
vn -0.382825 0.000000 -0.923821
vn -0.382763 0.000000 -0.923847
vn -0.192402 0.000000 -0.981316
vn -0.192350 0.000000 -0.981326
vn -0.000000 0.000000 -1.000000
vn 0.000000 0.000000 -1.000000
vn 0.192350 0.000000 -0.981326
vn 0.192402 0.000000 -0.981316
vn 0.382763 0.000000 -0.923847
vn 0.382825 0.000000 -0.923821
vn 0.557996 0.000000 -0.829844
vn 0.558035 0.000000 -0.829818
vn 0.707107 0.000000 -0.707106
vn 0.707108 0.000000 -0.707105
vn 0.829844 0.000000 -0.557995
vn 0.829819 0.000000 -0.558032
vn 0.923821 0.000000 -0.382824
vn 0.923847 0.000000 -0.382762
vn 0.981316 0.000000 -0.192401
vn -0.994157 -0.107945 0.000000
vn -0.965926 -0.258819 0.000000
vn -0.993932 -0.110000 0.000000
vn -0.965926 -0.258819 0.000000
vn -0.994157 -0.107945 0.000000
vn -1.000000 -0.000000 0.000000
vn -0.994823 -0.101620 0.000000
vn -0.995825 -0.091280 0.000000
vn -0.996970 -0.077782 0.000000
vn -0.998114 -0.061384 0.000000
vn -0.999113 -0.042111 0.000000
vn -0.999776 -0.021164 0.000000
vn -1.000000 -0.000000 0.000000
vn -0.999776 0.021164 0.000000
vn -0.999113 0.042111 0.000000
vn -0.998114 0.061384 0.000000
vn -0.996970 0.077782 0.000000
vn -0.995825 0.091280 0.000000
vn -0.965926 0.258819 0.000000
vn -0.994823 0.101620 0.000000
vn -0.994157 0.107945 0.000000
vn -0.993932 0.110000 0.000000
vn -0.965926 0.258819 0.000000
vn -0.994157 0.107945 0.000000
vn -0.994823 0.101620 0.000000
vn -0.995825 0.091280 0.000000
vn -1.000000 -0.000000 0.000000
vn -0.996970 0.077782 0.000000
vn -0.998114 0.061384 0.000000
vn -0.999113 0.042111 0.000000
vn -0.999776 0.021164 0.000000
vn -1.000000 -0.000000 0.000000
vn -0.999776 -0.021164 0.000000
vn -0.999113 -0.042111 0.000000
vn -0.998114 -0.061384 0.000000
vn -0.996970 -0.077782 0.000000
vn -0.995825 -0.091280 0.000000
vn -0.994823 -0.101620 0.000000
vn 0.994157 -0.107945 0.000000
vn 0.965926 -0.258819 0.000000
vn 0.993932 -0.110000 0.000000
vn 0.965926 -0.258819 0.000000
vn 0.994157 -0.107945 0.000000
vn 0.994823 -0.101620 0.000000
vn 0.995825 -0.091280 0.000000
vn 1.000000 0.000000 -0.000000
vn 0.996970 -0.077782 0.000000
vn 0.998114 -0.061384 0.000000
vn 0.999113 -0.042111 0.000000
vn 0.999776 -0.021164 0.000000
vn 1.000000 0.000000 -0.000000
vn 0.999776 0.021164 -0.000000
vn 0.999113 0.042111 -0.000000
vn 0.998114 0.061384 -0.000000
vn 0.996970 0.077782 -0.000000
vn 0.995825 0.091280 -0.000000
vn 0.994823 0.101620 -0.000000
vn 0.994157 0.107945 -0.000000
vn 0.965926 0.258819 -0.000000
vn 0.993932 0.110000 -0.000000
vn 0.965926 0.258819 -0.000000
vn 0.994157 0.107945 -0.000000
vn 1.000000 0.000000 -0.000000
vn 0.994823 0.101620 -0.000000
vn 0.995825 0.091280 -0.000000
vn 0.996970 0.077782 -0.000000
vn 0.998114 0.061384 -0.000000
vn 0.999113 0.042111 -0.000000
vn 0.999776 0.021164 -0.000000
vn 1.000000 0.000000 -0.000000
vn 0.999776 -0.021164 0.000000
vn 0.999113 -0.042111 0.000000
vn 0.998114 -0.061384 0.000000
vn 0.996970 -0.077782 0.000000
vn 0.995825 -0.091280 0.000000
vn 0.994823 -0.101620 0.000000
vn 0.107945 -0.994157 0.000000
vn 0.258819 -0.965926 0.000000
vn 0.110000 -0.993932 0.000000
vn 0.258819 -0.965926 0.000000
vn 0.107945 -0.994157 0.000000
vn 0.000000 -1.000000 0.000000
vn 0.101620 -0.994823 0.000000
vn 0.091280 -0.995825 0.000000
vn 0.077782 -0.996970 0.000000
vn 0.061384 -0.998114 0.000000
vn 0.042111 -0.999113 0.000000
vn 0.021164 -0.999776 0.000000
vn 0.000000 -1.000000 0.000000
vn -0.021164 -0.999776 0.000000
vn -0.042111 -0.999113 0.000000
vn -0.061384 -0.998114 0.000000
vn -0.077782 -0.996970 0.000000
vn -0.091280 -0.995825 0.000000
vn -0.258819 -0.965926 0.000000
vn -0.101620 -0.994823 0.000000
vn -0.107945 -0.994157 0.000000
vn -0.110000 -0.993932 0.000000
vn -0.258819 -0.965926 0.000000
vn -0.107945 -0.994157 0.000000
vn -0.101620 -0.994823 0.000000
vn -0.091280 -0.995825 0.000000
vn 0.000000 -1.000000 0.000000
vn -0.077782 -0.996970 0.000000
vn -0.061384 -0.998114 0.000000
vn -0.042111 -0.999113 0.000000
vn -0.021164 -0.999776 0.000000
vn 0.000000 -1.000000 0.000000
vn 0.021164 -0.999776 0.000000
vn 0.042111 -0.999113 0.000000
vn 0.061384 -0.998114 0.000000
vn 0.077782 -0.996970 0.000000
vn 0.091280 -0.995825 0.000000
vn 0.101620 -0.994823 0.000000
vn 0.107945 0.994157 -0.000000
vn 0.258819 0.965926 -0.000000
vn 0.110000 0.993932 -0.000000
vn 0.258819 0.965926 -0.000000
vn 0.107945 0.994157 -0.000000
vn 0.101620 0.994823 -0.000000
vn 0.091280 0.995825 -0.000000
vn -0.000000 1.000000 0.000000
vn 0.077782 0.996970 -0.000000
vn 0.061384 0.998114 -0.000000
vn 0.042111 0.999113 -0.000000
vn 0.021164 0.999776 -0.000000
vn 0.000000 1.000000 -0.000000
vn -0.021164 0.999776 0.000000
vn -0.042111 0.999113 0.000000
vn -0.061384 0.998114 0.000000
vn -0.077782 0.996970 0.000000
vn -0.091280 0.995825 0.000000
vn -0.101620 0.994823 0.000000
vn -0.107945 0.994157 0.000000
vn -0.258819 0.965926 0.000000
vn -0.110000 0.993932 0.000000
vn -0.258819 0.965926 0.000000
vn -0.107945 0.994157 0.000000
vn -0.000000 1.000000 0.000000
vn -0.101620 0.994823 0.000000
vn -0.091280 0.995825 0.000000
vn -0.077782 0.996970 0.000000
vn -0.061384 0.998114 0.000000
vn -0.042111 0.999113 0.000000
vn -0.021164 0.999776 0.000000
vn 0.000000 1.000000 -0.000000
vn 0.021164 0.999776 -0.000000
vn 0.042111 0.999113 -0.000000
vn 0.061384 0.998114 -0.000000
vn 0.077782 0.996970 -0.000000
vn 0.091280 0.995825 -0.000000
vn 0.101620 0.994823 -0.000000
vn -0.866025 -0.500000 0.000000
vn -0.866025 -0.500000 0.000000
vn -0.707107 -0.707107 0.000000
vn -0.707107 -0.707107 0.000000
vn -0.500000 -0.866025 0.000000
vn -0.500000 -0.866025 0.000000
vn 0.500000 -0.866025 0.000000
vn 0.500000 -0.866025 0.000000
vn 0.707107 -0.707107 0.000000
vn 0.707107 -0.707107 0.000000
vn 0.866025 -0.500000 0.000000
vn 0.866025 -0.500000 0.000000
vn 0.866025 0.500000 -0.000000
vn 0.866025 0.500000 -0.000000
vn 0.707107 0.707107 -0.000000
vn 0.707107 0.707107 -0.000000
vn 0.500000 0.866025 -0.000000
vn 0.500000 0.866025 -0.000000
vn -0.500000 0.866025 0.000000
vn -0.500000 0.866025 0.000000
vn -0.707107 0.707107 0.000000
vn -0.707107 0.707107 0.000000
vn -0.866025 0.500000 0.000000
vn -0.866025 0.500000 0.000000
vn -0.772742 -0.207056 -0.599998
vn -0.774868 -0.198952 -0.599998
vn -0.800001 -0.000000 -0.599998
vn -0.800001 -0.000000 -0.599998
vn -0.774868 0.198952 -0.599998
vn -0.701047 -0.385404 -0.599998
vn -0.692821 -0.400001 -0.599998
vn -0.583176 -0.547639 -0.599998
vn -0.565686 -0.565686 -0.599998
vn -0.428662 -0.675463 -0.599998
vn -0.400001 -0.692821 -0.599998
vn -0.247214 -0.760846 -0.599998
vn -0.207056 -0.772742 -0.599998
vn -0.050232 -0.798423 -0.599998
vn 0.000000 -0.800001 -0.599998
vn 0.149905 -0.785831 -0.599998
vn 0.207056 -0.772742 -0.599998
vn 0.340624 -0.723863 -0.599998
vn 0.400001 -0.692821 -0.599998
vn 0.509940 -0.616412 -0.599998
vn 0.565686 -0.565686 -0.599998
vn 0.647215 -0.470229 -0.599998
vn 0.692821 -0.400001 -0.599998
vn 0.743822 -0.294500 -0.599998
vn 0.772742 -0.207056 -0.599998
vn 0.793693 -0.100267 -0.599998
vn 0.800001 0.000000 -0.599998
vn 0.793693 0.100267 -0.599998
vn 0.772742 0.207056 -0.599998
vn 0.743822 0.294500 -0.599998
vn 0.692821 0.400001 -0.599998
vn 0.647215 0.470229 -0.599998
vn 0.565686 0.565686 -0.599998
vn 0.509940 0.616412 -0.599998
vn 0.400001 0.692821 -0.599998
vn 0.340624 0.723863 -0.599998
vn 0.207056 0.772742 -0.599998
vn 0.149905 0.785831 -0.599998
vn -0.000000 0.800001 -0.599998
vn -0.050232 0.798423 -0.599998
vn -0.207056 0.772742 -0.599998
vn -0.247214 0.760846 -0.599998
vn -0.400001 0.692821 -0.599998
vn -0.428662 0.675463 -0.599998
vn -0.565686 0.565686 -0.599998
vn -0.583176 0.547639 -0.599998
vn -0.692821 0.400001 -0.599998
vn -0.701047 0.385404 -0.599998
vn -0.772742 0.207056 -0.599998
vn -0.000000 -0.000000 -1.000000
vn -0.000000 -0.000000 -1.000000
vn -0.000000 -0.000000 -1.000000
vn -0.000000 -0.000000 -1.000000
vn -0.000000 -0.000000 -1.000000
vn -0.000000 -0.000000 -1.000000
vn -0.000000 -0.000000 -1.000000
vn -0.000000 -0.000000 -1.000000
vn -0.000000 -0.000000 -1.000000
vn -0.000000 -0.000000 -1.000000
vn -0.000000 -0.000000 -1.000000
vn -0.000000 -0.000000 -1.000000
vn -0.000000 -0.000000 -1.000000
vn -0.000000 -0.000000 -1.000000
vn -0.000000 -0.000000 -1.000000
vn -0.000000 -0.000000 -1.000000
vn -0.000000 -0.000000 -1.000000
vn -0.000000 -0.000000 -1.000000
vn -0.000000 -0.000000 -1.000000
vn -0.000000 -0.000000 -1.000000
vn -0.000000 -0.000000 -1.000000
vn -0.000000 -0.000000 -1.000000
vn -0.000000 -0.000000 -1.000000
vn -0.000000 -0.000000 -1.000000
vn -0.000000 -0.000000 -1.000000
vn -0.000000 -0.000000 -1.000000
vn -0.000000 -0.000000 -1.000000
vn -0.000000 -0.000000 -1.000000
vn -0.000000 -0.000000 -1.000000
vn -0.000000 -0.000000 -1.000000
vn -0.000000 -0.000000 -1.000000
vn -0.000000 -0.000000 -1.000000
vn -0.000000 -0.000000 -1.000000
vn -0.000000 -0.000000 -1.000000
vn -0.000000 -0.000000 -1.000000
vn -0.000000 -0.000000 -1.000000
vn -0.000000 -0.000000 -1.000000
vn -0.000000 -0.000000 -1.000000
vn -0.000000 -0.000000 -1.000000
vn -0.000000 -0.000000 -1.000000
vn -0.000000 -0.000000 -1.000000
vn -0.000000 -0.000000 -1.000000
vn -0.000000 -0.000000 -1.000000
vn -0.000000 -0.000000 -1.000000
vn -0.000000 -0.000000 -1.000000
vn -0.000000 -0.000000 -1.000000
vn -0.000000 -0.000000 -1.000000
vn -0.000000 -0.000000 -1.000000
vn -0.000000 -0.000000 -1.000000
vn -0.000000 -0.000000 -1.000000
vn -0.000000 -0.000000 -1.000000
vn -0.000000 -0.000000 -1.000000
vn 0.230616 0.973045 -0.000000
vn 0.068462 0.997654 -0.000000
vn -0.000000 1.000000 -0.000000
vn 0.058336 0.998297 -0.000000
vn 0.046035 0.998940 -0.000000
vn 0.448799 0.893633 -0.000000
vn 0.396080 0.918216 -0.000000
vn 0.173648 0.984808 -0.000000
vn 0.082500 0.996591 -0.000000
vn 0.080959 0.996717 -0.000000
vn 0.076217 0.997091 -0.000000
vn 0.068462 0.997654 -0.000000
vn 0.058336 0.998297 -0.000000
vn -0.058145 0.998308 -0.000000
vn 0.046035 0.998940 -0.000000
vn 0.031578 0.999501 -0.000000
vn 0.015869 0.999874 -0.000000
vn -0.000000 1.000000 -0.000000
vn -0.015869 0.999874 -0.000000
vn -0.031578 0.999501 -0.000000
vn -0.046035 0.998940 -0.000000
vn -0.058336 0.998297 -0.000000
vn -0.068462 0.997654 -0.000000
vn -0.076217 0.997091 -0.000000
vn -0.080959 0.996717 -0.000000
vn -0.082500 0.996591 -0.000000
vn -0.286803 0.957990 -0.000000
vn -0.230616 0.973045 -0.000000
vn -0.448799 0.893633 -0.000000
vn -0.500000 0.866025 -0.000000
vn -0.642788 0.766044 -0.000000
vn -0.686242 0.727374 -0.000000
vn -0.802123 0.597159 -0.000000
vn -0.835488 0.549509 -0.000000
vn -0.918216 0.396080 -0.000000
vn -0.939693 0.342020 -0.000000
vn -0.984808 0.173648 -0.000000
vn -0.993238 0.116093 -0.000000
vn -0.996591 0.082500 -0.000000
vn -0.996717 0.080959 -0.000000
vn -0.997091 0.076217 -0.000000
vn -0.997654 0.068462 -0.000000
vn -0.998297 0.058336 -0.000000
vn -0.998940 0.046035 -0.000000
vn -0.999501 0.031578 -0.000000
vn -0.999874 0.015869 -0.000000
vn -1.000000 -0.000000 0.000000
vn -0.993238 -0.116093 0.000000
vn -0.999874 -0.015869 0.000000
vn -0.999501 -0.031578 0.000000
vn -0.998940 -0.046035 0.000000
vn -0.998297 -0.058336 0.000000
vn -0.997654 -0.068462 0.000000
vn -0.997091 -0.076217 0.000000
vn -0.996717 -0.080959 0.000000
vn -0.996591 -0.082500 0.000000
vn -0.998308 -0.058145 0.000000
vn -0.996717 -0.080959 0.000000
vn -0.997091 -0.076217 0.000000
vn -0.997654 -0.068462 0.000000
vn -0.998297 -0.058336 0.000000
vn -0.998940 -0.046035 0.000000
vn -0.999501 -0.031578 0.000000
vn -0.999874 -0.015869 0.000000
vn -1.000000 -0.000000 0.000000
vn -0.999874 0.015869 -0.000000
vn -0.999501 0.031578 -0.000000
vn -0.998940 0.046035 -0.000000
vn -0.998297 0.058336 -0.000000
vn -0.997654 0.068462 -0.000000
vn -0.997091 0.076217 -0.000000
vn -0.996717 0.080959 -0.000000
vn 0.597159 0.802123 -0.000000
vn 0.642788 0.766044 -0.000000
vn 0.766044 0.642788 -0.000000
vn 0.802123 0.597159 -0.000000
vn 0.893633 0.448799 -0.000000
vn 0.918216 0.396080 -0.000000
vn 0.973045 0.230616 -0.000000
vn 0.984808 0.173648 -0.000000
vn 0.996591 0.082500 -0.000000
vn 0.996717 0.080959 -0.000000
vn 0.997091 0.076217 -0.000000
vn 0.997654 0.068462 -0.000000
vn 0.998297 0.058336 -0.000000
vn 0.998308 -0.058145 -0.000000
vn 0.998940 0.046035 -0.000000
vn 0.999501 0.031578 -0.000000
vn 0.999874 0.015869 -0.000000
vn 1.000000 0.000000 -0.000000
vn 0.999874 -0.015869 -0.000000
vn 0.999501 -0.031578 -0.000000
vn 0.998940 -0.046035 -0.000000
vn 0.998297 -0.058336 -0.000000
vn 0.997654 -0.068462 -0.000000
vn 0.997091 -0.076217 -0.000000
vn 0.996717 -0.080959 -0.000000
vn 0.957990 -0.286803 -0.000000
vn 0.996591 -0.082500 -0.000000
vn 0.973045 -0.230616 -0.000000
vn 0.996717 -0.080959 -0.000000
vn 1.000000 0.000000 -0.000000
vn 0.997091 -0.076217 -0.000000
vn 0.997654 -0.068462 -0.000000
vn 0.998297 -0.058336 -0.000000
vn 0.998940 -0.046035 -0.000000
vn 0.999501 -0.031578 -0.000000
vn 0.999874 -0.015869 -0.000000
vn 1.000000 0.000000 -0.000000
vn 0.999874 0.015869 -0.000000
vn 0.999501 0.031578 -0.000000
vn 0.998940 0.046035 -0.000000
vn 0.998297 0.058336 -0.000000
vn 0.997654 0.068462 -0.000000
vn 0.997091 0.076217 -0.000000
vn 0.996717 0.080959 -0.000000
vn 0.893633 -0.448799 -0.000000
vn 0.866025 -0.500000 -0.000000
vn 0.766044 -0.642788 -0.000000
vn 0.727374 -0.686242 -0.000000
vn 0.597159 -0.802123 -0.000000
vn 0.549509 -0.835488 -0.000000
vn 0.396080 -0.918216 -0.000000
vn 0.342020 -0.939693 -0.000000
vn 0.173648 -0.984808 -0.000000
vn 0.116093 -0.993238 -0.000000
vn 0.082500 -0.996591 -0.000000
vn 0.080959 -0.996717 -0.000000
vn 0.076217 -0.997091 -0.000000
vn 0.068462 -0.997654 -0.000000
vn 0.058336 -0.998297 -0.000000
vn 0.046035 -0.998940 -0.000000
vn 0.031578 -0.999501 -0.000000
vn 0.015869 -0.999874 -0.000000
vn -0.000000 -1.000000 0.000000
vn -0.116093 -0.993238 0.000000
vn -0.015869 -0.999874 0.000000
vn -0.031578 -0.999501 0.000000
vn -0.046035 -0.998940 0.000000
vn -0.058336 -0.998297 0.000000
vn -0.068462 -0.997654 0.000000
vn -0.076217 -0.997091 0.000000
vn -0.080959 -0.996717 0.000000
vn -0.082500 -0.996591 0.000000
vn -0.058145 -0.998308 0.000000
vn -0.080959 -0.996717 0.000000
vn -0.076217 -0.997091 0.000000
vn -0.068462 -0.997654 0.000000
vn -0.058336 -0.998297 0.000000
vn -0.046035 -0.998940 0.000000
vn -0.031578 -0.999501 0.000000
vn -0.015869 -0.999874 0.000000
vn -0.000000 -1.000000 0.000000
vn 0.015869 -0.999874 -0.000000
vn 0.031578 -0.999501 -0.000000
vn 0.046035 -0.998940 -0.000000
vn 0.058336 -0.998297 -0.000000
vn 0.068462 -0.997654 -0.000000
vn 0.076217 -0.997091 -0.000000
vn 0.080959 -0.996717 -0.000000
vn -0.286803 -0.957990 0.000000
vn -0.342020 -0.939693 0.000000
vn -0.500000 -0.866025 0.000000
vn -0.549509 -0.835488 0.000000
vn -0.686242 -0.727374 0.000000
vn -0.727374 -0.686242 0.000000
vn -0.835488 -0.549509 0.000000
vn -0.866025 -0.500000 0.000000
vn -0.939693 -0.342020 0.000000
vn -0.957990 -0.286803 0.000000
vn -0.080959 0.996717 -0.000000
vn -0.076217 0.997091 -0.000000
vn -0.068462 0.997654 -0.000000
vn -0.058336 0.998297 -0.000000
vn -0.046035 0.998940 -0.000000
vn -0.031578 0.999501 -0.000000
vn -0.015869 0.999874 -0.000000
vn -0.000000 1.000000 -0.000000
vn 0.015869 0.999874 -0.000000
vn 0.031578 0.999501 -0.000000
vn 0.080959 0.996717 -0.000000
vn 0.076217 0.997091 -0.000000
usemtl Steel_-_Satin
f 30/1/1 1/2/2 31/3/3
f 31/3/3 1/2/2 2/4/4
f 31/3/3 2/4/4 57/5/5
f 57/5/5 2/4/4 3/6/6
f 57/5/5 3/6/6 56/7/7
f 56/7/7 3/6/6 4/8/8
f 56/7/7 4/8/8 55/9/9
f 55/9/9 4/8/8 5/10/10
f 55/9/9 5/10/10 54/11/11
f 54/11/11 5/10/10 6/12/12
f 54/11/11 6/12/12 53/13/13
f 53/13/13 6/12/12 7/14/14
f 53/13/13 7/14/14 52/15/15
f 52/15/15 7/14/14 8/16/16
f 52/15/15 8/16/16 51/17/17
f 51/17/17 8/16/16 9/18/18
f 51/17/17 9/18/18 50/19/19
f 50/19/19 9/18/18 10/20/20
f 50/19/19 10/20/20 49/21/21
f 49/21/21 10/20/20 11/22/22
f 49/21/21 11/22/22 12/23/23
f 49/21/21 12/23/23 48/24/24
f 48/24/24 12/23/23 13/25/25
f 48/24/24 13/25/25 47/26/26
f 47/26/26 13/25/25 14/27/27
f 47/26/26 14/27/27 46/28/28
f 46/28/28 14/27/27 15/29/29
f 46/28/28 15/29/29 45/30/30
f 45/30/30 15/29/29 16/31/31
f 45/30/30 16/31/31 44/32/32
f 44/33/32 16/34/31 17/35/33
f 44/33/32 17/35/33 43/36/34
f 43/36/34 17/35/33 18/37/35
f 43/36/34 18/37/35 42/38/36
f 42/38/36 18/37/35 19/39/37
f 42/38/36 19/39/37 41/40/38
f 41/40/38 19/39/37 20/41/39
f 41/40/38 20/41/39 40/42/40
f 40/42/40 20/41/39 21/43/41
f 40/42/40 21/43/41 22/44/42
f 40/42/40 22/44/42 39/45/43
f 39/45/43 22/44/42 23/46/44
f 39/45/43 23/46/44 38/47/45
f 38/47/45 23/46/44 24/48/46
f 38/47/45 24/48/46 37/49/47
f 37/49/47 24/48/46 25/50/48
f 37/49/47 25/50/48 36/51/49
f 36/51/49 25/50/48 26/52/50
f 36/51/49 26/52/50 35/53/51
f 35/53/51 26/52/50 27/54/52
f 35/53/51 27/54/52 34/55/53
f 34/55/53 27/54/52 28/56/54
f 34/55/53 28/56/54 33/57/55
f 33/57/55 28/56/54 29/58/56
f 33/57/55 29/58/56 32/59/57
f 32/59/57 29/58/56 30/1/1
f 32/59/57 30/1/1 31/3/3
f 30/60/58 58/61/59 1/62/60
f 1/62/60 58/61/59 59/63/61
f 1/62/60 59/63/61 2/64/62
f 2/64/62 59/63/61 3/65/63
f 3/65/63 59/63/61 4/66/64
f 4/66/64 59/63/61 5/67/65
f 5/67/65 59/63/61 6/68/66
f 6/68/66 59/63/61 7/69/67
f 7/69/67 59/63/61 8/70/68
f 8/70/68 59/63/61 9/71/69
f 9/71/69 59/63/61 60/72/70
f 9/71/69 60/72/70 10/73/71
f 10/73/71 60/72/70 11/74/72
f 11/74/72 60/72/70 12/75/73
f 12/75/73 60/72/70 13/76/74
f 13/76/74 60/72/70 14/77/75
f 14/77/75 60/72/70 15/78/76
f 15/78/76 60/72/70 16/79/77
f 16/79/77 60/72/70 61/80/78
f 16/79/77 61/80/78 17/81/79
f 17/81/79 61/80/78 18/82/80
f 18/82/80 61/80/78 19/83/81
f 19/83/81 61/80/78 20/84/82
f 20/84/82 61/80/78 21/85/83
f 21/85/83 61/80/78 22/86/84
f 22/86/84 61/80/78 23/87/85
f 23/87/85 61/80/78 58/61/59
f 23/87/85 58/61/59 24/88/86
f 24/88/86 58/61/59 25/89/87
f 25/89/87 58/61/59 26/90/88
f 26/90/88 58/61/59 27/91/89
f 27/91/89 58/61/59 28/92/90
f 28/92/90 58/61/59 29/93/91
f 29/93/91 58/61/59 30/60/58
f 63/94/92 73/95/93 62/96/94
f 62/96/94 73/95/93 74/97/95
f 62/96/94 74/97/95 85/98/96
f 85/98/96 74/97/95 75/99/97
f 85/98/96 75/99/97 84/100/98
f 84/100/98 75/99/97 76/101/99
f 84/100/98 76/101/99 83/102/100
f 83/102/100 76/101/99 77/103/101
f 83/102/100 77/103/101 82/104/102
f 82/104/102 77/103/101 78/105/103
f 82/104/102 78/105/103 81/106/104
f 81/106/104 78/105/103 79/107/105
f 81/106/104 79/107/105 80/108/106
f 73/95/93 63/94/92 72/109/107
f 72/109/107 63/94/92 64/110/108
f 72/109/107 64/110/108 71/111/109
f 71/111/109 64/110/108 65/112/110
f 71/111/109 65/112/110 70/113/111
f 70/113/111 65/112/110 66/114/112
f 70/113/111 66/114/112 69/115/113
f 69/115/113 66/114/112 67/116/114
f 69/115/113 67/116/114 68/117/115
f 60/118/116 59/119/117 87/120/118
f 87/120/118 59/119/117 86/121/119
f 61/122/120 60/123/121 88/124/122
f 88/124/122 60/123/121 87/125/123
f 58/126/124 61/127/125 89/128/126
f 89/128/126 61/127/125 88/129/127
f 59/130/128 58/131/129 86/132/130
f 86/132/130 58/131/129 89/133/131
f 86/134/132 89/135/133 87/136/134
f 87/136/134 89/135/133 88/137/135
f 91/138/136 153/139/137 90/140/138
f 90/140/138 153/139/137 122/141/139
f 90/140/138 122/141/139 121/142/140
f 121/142/140 122/141/139 123/143/141
f 121/142/140 123/143/141 124/144/142
f 91/138/136 92/145/143 153/139/137
f 153/139/137 92/145/143 152/146/144
f 152/146/144 92/145/143 93/147/145
f 152/146/144 93/147/145 151/148/146
f 151/148/146 93/147/145 94/149/147
f 151/148/146 94/149/147 150/150/148
f 150/150/148 94/149/147 149/151/149
f 149/151/149 94/149/147 95/152/150
f 149/151/149 95/152/150 148/153/151
f 148/153/151 95/152/150 96/154/152
f 148/153/151 96/154/152 147/155/153
f 147/155/153 96/154/152 97/156/154
f 147/155/153 97/156/154 146/157/155
f 146/157/155 97/156/154 98/158/156
f 146/157/155 98/158/156 99/159/157
f 146/157/155 99/159/157 145/160/158
f 145/160/158 99/159/157 100/161/159
f 145/160/158 100/161/159 144/162/160
f 144/162/160 100/161/159 101/163/161
f 144/162/160 101/163/161 143/164/162
f 143/164/162 101/163/161 102/165/163
f 143/164/162 102/165/163 142/166/164
f 142/166/164 102/165/163 103/167/165
f 142/166/164 103/167/165 141/168/166
f 141/168/166 103/167/165 104/169/167
f 141/168/166 104/169/167 140/170/168
f 140/170/168 104/169/167 105/171/169
f 140/170/168 105/171/169 139/172/170
f 139/172/170 105/171/169 138/173/171
f 138/173/171 105/171/169 106/174/172
f 138/175/171 106/176/172 137/177/173
f 137/177/173 106/176/172 107/178/174
f 137/177/173 107/178/174 108/179/175
f 137/177/173 108/179/175 136/180/176
f 136/180/176 108/179/175 109/181/177
f 136/180/176 109/181/177 135/182/178
f 135/182/178 109/181/177 110/183/179
f 135/182/178 110/183/179 134/184/180
f 134/184/180 110/183/179 133/185/181
f 133/185/181 110/183/179 111/186/182
f 133/185/181 111/186/182 132/187/183
f 132/187/183 111/186/182 112/188/184
f 132/187/183 112/188/184 131/189/185
f 131/189/185 112/188/184 113/190/186
f 131/189/185 113/190/186 130/191/187
f 130/191/187 113/190/186 114/192/188
f 130/191/187 114/192/188 115/193/189
f 130/191/187 115/193/189 129/194/190
f 129/194/190 115/193/189 116/195/191
f 129/194/190 116/195/191 128/196/192
f 128/196/192 116/195/191 117/197/193
f 128/196/192 117/197/193 127/198/194
f 127/198/194 117/197/193 118/199/195
f 127/198/194 118/199/195 126/200/196
f 126/200/196 118/199/195 119/201/197
f 126/200/196 119/201/197 125/202/198
f 125/202/198 119/201/197 120/203/199
f 125/202/198 120/203/199 124/144/142
f 124/144/142 120/203/199 121/142/140
f 155/204/200 217/205/201 154/206/202
f 154/206/202 217/205/201 186/207/203
f 154/206/202 186/207/203 187/208/204
f 155/204/200 156/209/205 217/205/201
f 217/205/201 156/209/205 216/210/206
f 216/210/206 156/209/205 157/211/207
f 216/210/206 157/211/207 215/212/208
f 215/212/208 157/211/207 214/213/209
f 214/213/209 157/211/207 158/214/210
f 214/213/209 158/214/210 159/215/211
f 214/213/209 159/215/211 213/216/212
f 213/216/212 159/215/211 160/217/213
f 213/216/212 160/217/213 212/218/214
f 212/218/214 160/217/213 161/219/215
f 212/218/214 161/219/215 211/220/216
f 211/220/216 161/219/215 162/221/217
f 211/220/216 162/221/217 210/222/218
f 210/222/218 162/221/217 209/223/219
f 209/223/219 162/221/217 163/224/220
f 209/223/219 163/224/220 208/225/221
f 208/225/221 163/224/220 164/226/222
f 208/225/221 164/226/222 207/227/223
f 207/227/223 164/226/222 165/228/224
f 207/227/223 165/228/224 206/229/225
f 206/229/225 165/228/224 166/230/226
f 206/229/225 166/230/226 205/231/227
f 205/231/227 166/230/226 167/232/228
f 205/231/227 167/232/228 168/233/229
f 205/231/227 168/233/229 204/234/230
f 204/234/230 168/233/229 169/235/231
f 204/234/230 169/235/231 203/236/232
f 203/236/232 169/235/231 170/237/233
f 203/236/232 170/237/233 202/238/234
f 202/239/234 170/240/233 201/241/235
f 201/241/235 170/240/233 171/242/236
f 201/241/235 171/242/236 172/243/237
f 201/241/235 172/243/237 200/244/238
f 200/244/238 172/243/237 173/245/239
f 200/244/238 173/245/239 199/246/240
f 199/246/240 173/245/239 198/247/241
f 198/247/241 173/245/239 174/248/242
f 198/247/241 174/248/242 175/249/243
f 198/247/241 175/249/243 197/250/244
f 197/250/244 175/249/243 176/251/245
f 197/250/244 176/251/245 196/252/246
f 196/252/246 176/251/245 177/253/247
f 196/252/246 177/253/247 195/254/248
f 195/254/248 177/253/247 178/255/249
f 195/254/248 178/255/249 194/256/250
f 194/256/250 178/255/249 193/257/251
f 193/257/251 178/255/249 179/258/252
f 193/257/251 179/258/252 192/259/253
f 192/259/253 179/258/252 180/260/254
f 192/259/253 180/260/254 191/261/255
f 191/261/255 180/260/254 181/262/256
f 191/261/255 181/262/256 190/263/257
f 190/263/257 181/262/256 182/264/258
f 190/263/257 182/264/258 189/265/259
f 189/265/259 182/264/258 183/266/260
f 189/265/259 183/266/260 184/267/261
f 189/265/259 184/267/261 188/268/262
f 188/268/262 184/267/261 185/269/263
f 188/268/262 185/269/263 187/208/204
f 187/208/204 185/269/263 154/206/202
f 219/270/264 281/271/265 218/272/266
f 218/272/266 281/271/265 250/273/267
f 218/274/266 250/275/267 249/276/268
f 249/276/268 250/275/267 251/277/269
f 249/276/268 251/277/269 252/278/270
f 219/270/264 220/279/271 281/271/265
f 281/271/265 220/279/271 280/280/272
f 280/280/272 220/279/271 221/281/273
f 280/280/272 221/281/273 279/282/274
f 279/282/274 221/281/273 222/283/275
f 279/282/274 222/283/275 278/284/276
f 278/284/276 222/283/275 277/285/277
f 277/285/277 222/283/275 223/286/278
f 277/285/277 223/286/278 276/287/279
f 276/287/279 223/286/278 224/288/280
f 276/287/279 224/288/280 275/289/281
f 275/289/281 224/288/280 225/290/282
f 275/289/281 225/290/282 274/291/283
f 274/291/283 225/290/282 226/292/284
f 274/291/283 226/292/284 227/293/285
f 274/291/283 227/293/285 273/294/286
f 273/294/286 227/293/285 228/295/287
f 273/294/286 228/295/287 272/296/288
f 272/296/288 228/295/287 229/297/289
f 272/296/288 229/297/289 271/298/290
f 271/298/290 229/297/289 230/299/291
f 271/298/290 230/299/291 270/300/292
f 270/300/292 230/299/291 231/301/293
f 270/300/292 231/301/293 269/302/294
f 269/302/294 231/301/293 232/303/295
f 269/302/294 232/303/295 268/304/296
f 268/304/296 232/303/295 233/305/297
f 268/304/296 233/305/297 267/306/298
f 267/306/298 233/305/297 266/307/299
f 266/307/299 233/305/297 234/308/300
f 266/307/299 234/308/300 265/309/301
f 265/309/301 234/308/300 235/310/302
f 265/309/301 235/310/302 236/311/303
f 265/309/301 236/311/303 264/312/304
f 264/312/304 236/311/303 237/313/305
f 264/312/304 237/313/305 263/314/306
f 263/314/306 237/313/305 238/315/307
f 263/314/306 238/315/307 262/316/308
f 262/316/308 238/315/307 261/317/309
f 261/317/309 238/315/307 239/318/310
f 261/317/309 239/318/310 260/319/311
f 260/319/311 239/318/310 240/320/312
f 260/319/311 240/320/312 259/321/313
f 259/321/313 240/320/312 241/322/314
f 259/321/313 241/322/314 258/323/315
f 258/323/315 241/322/314 242/324/316
f 258/323/315 242/324/316 243/325/317
f 258/323/315 243/325/317 257/326/318
f 257/326/318 243/325/317 244/327/319
f 257/326/318 244/327/319 256/328/320
f 256/328/320 244/327/319 245/329/321
f 256/328/320 245/329/321 255/330/322
f 255/330/322 245/329/321 246/331/323
f 255/330/322 246/331/323 254/332/324
f 254/332/324 246/331/323 247/333/325
f 254/332/324 247/333/325 253/334/326
f 253/334/326 247/333/325 248/335/327
f 253/334/326 248/335/327 252/278/270
f 252/278/270 248/335/327 249/276/268
f 283/336/328 345/337/329 282/338/330
f 282/338/330 345/337/329 314/339/331
f 282/340/330 314/341/331 315/342/332
f 283/336/328 284/343/333 345/337/329
f 345/337/329 284/343/333 344/344/334
f 344/344/334 284/343/333 285/345/335
f 344/344/334 285/345/335 343/346/336
f 343/346/336 285/345/335 342/347/337
f 342/347/337 285/345/335 286/348/338
f 342/347/337 286/348/338 287/349/339
f 342/347/337 287/349/339 341/350/340
f 341/350/340 287/349/339 288/351/341
f 341/350/340 288/351/341 340/352/342
f 340/352/342 288/351/341 289/353/343
f 340/352/342 289/353/343 339/354/344
f 339/354/344 289/353/343 290/355/345
f 339/354/344 290/355/345 338/356/346
f 338/356/346 290/355/345 337/357/347
f 337/357/347 290/355/345 291/358/348
f 337/357/347 291/358/348 336/359/349
f 336/359/349 291/358/348 292/360/350
f 336/359/349 292/360/350 335/361/351
f 335/361/351 292/360/350 293/362/352
f 335/361/351 293/362/352 334/363/353
f 334/363/353 293/362/352 294/364/354
f 334/363/353 294/364/354 333/365/355
f 333/365/355 294/364/354 295/366/356
f 333/365/355 295/366/356 296/367/357
f 333/365/355 296/367/357 332/368/358
f 332/368/358 296/367/357 297/369/359
f 332/368/358 297/369/359 331/370/360
f 331/370/360 297/369/359 298/371/361
f 331/370/360 298/371/361 330/372/362
f 330/372/362 298/371/361 329/373/363
f 329/373/363 298/371/361 299/374/364
f 329/373/363 299/374/364 300/375/365
f 329/373/363 300/375/365 328/376/366
f 328/376/366 300/375/365 301/377/367
f 328/376/366 301/377/367 327/378/368
f 327/378/368 301/377/367 326/379/369
f 326/379/369 301/377/367 302/380/370
f 326/379/369 302/380/370 303/381/371
f 326/379/369 303/381/371 325/382/372
f 325/382/372 303/381/371 304/383/373
f 325/382/372 304/383/373 324/384/374
f 324/384/374 304/383/373 305/385/375
f 324/384/374 305/385/375 323/386/376
f 323/386/376 305/385/375 306/387/377
f 323/386/376 306/387/377 322/388/378
f 322/388/378 306/387/377 321/389/379
f 321/389/379 306/387/377 307/390/380
f 321/389/379 307/390/380 320/391/381
f 320/391/381 307/390/380 308/392/382
f 320/391/381 308/392/382 319/393/383
f 319/393/383 308/392/382 309/394/384
f 319/393/383 309/394/384 318/395/385
f 318/395/385 309/394/384 310/396/386
f 318/395/385 310/396/386 317/397/387
f 317/397/387 310/396/386 311/398/388
f 317/397/387 311/398/388 312/399/389
f 317/397/387 312/399/389 316/400/390
f 316/400/390 312/399/389 313/401/391
f 316/400/390 313/401/391 315/342/332
f 315/342/332 313/401/391 282/340/330
f 185/402/392 85/403/393 154/404/394
f 154/404/394 85/403/393 369/405/395
f 154/404/394 369/405/395 155/406/396
f 155/406/396 369/405/395 346/407/397
f 155/406/396 346/407/397 156/408/398
f 156/408/398 346/407/397 157/409/399
f 157/409/399 346/407/397 158/410/400
f 158/410/400 346/407/397 159/411/401
f 159/411/401 346/407/397 160/412/402
f 160/412/402 346/407/397 161/413/403
f 161/413/403 346/407/397 162/414/404
f 162/414/404 346/407/397 163/415/405
f 163/415/405 346/407/397 164/416/406
f 164/416/406 346/407/397 165/417/407
f 165/417/407 346/407/397 166/418/408
f 166/418/408 346/407/397 167/419/409
f 167/419/409 346/407/397 347/420/410
f 167/419/409 347/420/410 168/421/411
f 168/421/411 347/420/410 169/422/412
f 169/422/412 347/420/410 170/423/413
f 170/423/413 347/420/410 63/424/414
f 170/423/413 63/424/414 171/425/415
f 171/425/415 63/424/414 172/426/416
f 172/426/416 63/424/414 173/427/417
f 173/427/417 63/424/414 62/428/418
f 173/427/417 62/428/418 174/429/419
f 174/429/419 62/428/418 175/430/420
f 175/430/420 62/428/418 176/431/421
f 176/431/421 62/428/418 177/432/422
f 177/432/422 62/428/418 178/433/423
f 178/433/423 62/428/418 179/434/424
f 179/434/424 62/428/418 180/435/425
f 180/435/425 62/428/418 181/436/426
f 181/436/426 62/428/418 182/437/427
f 182/437/427 62/428/418 183/438/428
f 183/438/428 62/428/418 184/439/429
f 184/439/429 62/428/418 185/402/392
f 185/402/392 62/428/418 85/403/393
f 153/440/430 359/441/431 122/442/432
f 122/442/432 359/441/431 75/443/433
f 122/442/432 75/443/433 123/444/434
f 123/444/434 75/443/433 124/445/435
f 124/445/435 75/443/433 125/446/436
f 125/446/436 75/443/433 74/447/437
f 125/446/436 74/447/437 126/448/438
f 126/448/438 74/447/437 127/449/439
f 127/449/439 74/447/437 128/450/440
f 128/450/440 74/447/437 129/451/441
f 129/451/441 74/447/437 130/452/442
f 130/453/442 74/454/437 131/455/443
f 131/455/443 74/454/437 132/456/444
f 132/456/444 74/454/437 133/457/445
f 133/457/445 74/454/437 134/458/446
f 134/458/446 74/454/437 135/459/447
f 135/459/447 74/454/437 136/460/448
f 136/460/448 74/454/437 137/461/449
f 137/461/449 74/454/437 73/462/450
f 137/461/449 73/462/450 138/463/451
f 138/463/451 73/462/450 357/464/452
f 138/463/451 357/464/452 139/465/453
f 139/465/453 357/464/452 358/466/454
f 139/465/453 358/466/454 140/467/455
f 140/467/455 358/466/454 141/468/456
f 141/468/456 358/466/454 142/469/457
f 142/469/457 358/466/454 143/470/458
f 143/470/458 358/466/454 144/471/459
f 144/471/459 358/466/454 145/472/460
f 145/472/460 358/466/454 146/473/461
f 146/474/461 358/475/454 147/476/462
f 147/476/462 358/475/454 148/477/463
f 148/477/463 358/475/454 149/478/464
f 149/478/464 358/475/454 150/479/465
f 150/479/465 358/475/454 151/480/466
f 151/480/466 358/475/454 359/441/431
f 151/480/466 359/441/431 152/481/467
f 152/481/467 359/441/431 153/440/430
f 313/482/468 79/483/469 282/484/470
f 282/484/470 79/483/469 363/485/471
f 282/484/470 363/485/471 283/486/472
f 283/486/472 363/485/471 364/487/473
f 283/486/472 364/487/473 284/488/474
f 284/488/474 364/487/473 285/489/475
f 285/489/475 364/487/473 286/490/476
f 286/490/476 364/487/473 287/491/477
f 287/491/477 364/487/473 288/492/478
f 288/492/478 364/487/473 289/493/479
f 289/493/479 364/487/473 290/494/480
f 290/494/480 364/487/473 291/495/481
f 291/495/481 364/487/473 292/496/482
f 292/496/482 364/487/473 293/497/483
f 293/497/483 364/487/473 294/498/484
f 294/498/484 364/487/473 295/499/485
f 295/499/485 364/487/473 365/500/486
f 295/499/485 365/500/486 296/501/487
f 296/501/487 365/500/486 297/502/488
f 297/502/488 365/500/486 298/503/489
f 298/503/489 365/500/486 81/504/490
f 298/503/489 81/504/490 299/505/491
f 299/505/491 81/504/490 300/506/492
f 300/506/492 81/504/490 301/507/493
f 301/507/493 81/504/490 80/508/494
f 301/507/493 80/508/494 302/509/495
f 302/509/495 80/508/494 303/510/496
f 303/510/496 80/508/494 304/511/497
f 304/511/497 80/508/494 305/512/498
f 305/512/498 80/508/494 306/513/499
f 306/513/499 80/508/494 307/514/500
f 307/514/500 80/508/494 308/515/501
f 308/515/501 80/508/494 309/516/502
f 309/516/502 80/508/494 310/517/503
f 310/517/503 80/508/494 311/518/504
f 311/518/504 80/508/494 312/519/505
f 312/519/505 80/508/494 313/482/468
f 313/482/468 80/508/494 79/483/469
f 281/520/506 353/521/507 250/522/508
f 250/522/508 353/521/507 69/523/509
f 250/522/508 69/523/509 251/524/510
f 251/524/510 69/523/509 252/525/511
f 252/525/511 69/523/509 253/526/512
f 253/526/512 69/523/509 68/527/513
f 253/526/512 68/527/513 254/528/514
f 254/528/514 68/527/513 255/529/515
f 255/529/515 68/527/513 256/530/516
f 256/530/516 68/527/513 257/531/517
f 257/531/517 68/527/513 258/532/518
f 258/532/518 68/527/513 259/533/519
f 259/533/519 68/527/513 260/534/520
f 260/534/520 68/527/513 261/535/521
f 261/535/521 68/527/513 262/536/522
f 262/536/522 68/527/513 263/537/523
f 263/537/523 68/527/513 264/538/524
f 264/538/524 68/527/513 265/539/525
f 265/539/525 68/527/513 67/540/526
f 265/539/525 67/540/526 266/541/527
f 266/541/527 67/540/526 351/542/528
f 266/541/527 351/542/528 267/543/529
f 267/543/529 351/542/528 352/544/530
f 267/543/529 352/544/530 268/545/531
f 268/545/531 352/544/530 269/546/532
f 269/546/532 352/544/530 270/547/533
f 270/547/533 352/544/530 271/548/534
f 271/548/534 352/544/530 272/549/535
f 272/549/535 352/544/530 273/550/536
f 273/550/536 352/544/530 274/551/537
f 274/551/537 352/544/530 275/552/538
f 275/552/538 352/544/530 276/553/539
f 276/553/539 352/544/530 277/554/540
f 277/554/540 352/544/530 278/555/541
f 278/555/541 352/544/530 279/556/542
f 279/556/542 352/544/530 353/521/507
f 279/556/542 353/521/507 280/557/543
f 280/557/543 353/521/507 281/520/506
f 369/405/395 85/403/393 368/558/544
f 368/558/544 85/403/393 84/559/545
f 368/558/544 84/559/545 367/560/546
f 367/560/546 84/559/545 83/561/547
f 367/560/546 83/561/547 366/562/548
f 366/562/548 83/561/547 82/563/549
f 366/562/548 82/563/549 365/500/486
f 365/500/486 82/563/549 81/504/490
f 363/485/471 79/483/469 362/564/550
f 362/564/550 79/483/469 78/565/551
f 362/564/550 78/565/551 361/566/552
f 361/566/552 78/565/551 77/567/553
f 361/566/552 77/567/553 360/568/554
f 360/568/554 77/567/553 76/569/555
f 360/568/554 76/569/555 359/441/431
f 359/441/431 76/569/555 75/443/433
f 357/464/452 73/462/450 356/570/556
f 356/570/556 73/462/450 72/571/557
f 356/570/556 72/571/557 355/572/558
f 355/572/558 72/571/557 71/573/559
f 355/572/558 71/573/559 354/574/560
f 354/574/560 71/573/559 70/575/561
f 354/574/560 70/575/561 353/521/507
f 353/521/507 70/575/561 69/523/509
f 351/542/528 67/540/526 350/576/562
f 350/576/562 67/540/526 66/577/563
f 350/576/562 66/577/563 349/578/564
f 349/578/564 66/577/563 65/579/565
f 349/578/564 65/579/565 348/580/566
f 348/580/566 65/579/565 64/581/567
f 348/580/566 64/581/567 347/420/410
f 347/420/410 64/581/567 63/424/414
f 369/582/568 394/583/569 346/584/570
f 346/584/570 394/583/569 370/585/571
f 346/584/570 370/585/571 371/586/572
f 394/583/569 369/582/568 393/587/573
f 393/587/573 369/582/568 368/588/574
f 393/587/573 368/588/574 392/589/575
f 392/589/575 368/588/574 367/590/576
f 392/589/575 367/590/576 391/591/577
f 391/591/577 367/590/576 366/592/578
f 391/591/577 366/592/578 390/593/579
f 390/593/579 366/592/578 365/594/580
f 390/593/579 365/594/580 389/595/581
f 389/595/581 365/594/580 364/596/582
f 389/595/581 364/596/582 388/597/583
f 388/597/583 364/596/582 363/598/584
f 388/597/583 363/598/584 387/599/585
f 387/599/585 363/598/584 362/600/586
f 387/599/585 362/600/586 386/601/587
f 386/601/587 362/600/586 361/602/588
f 386/601/587 361/602/588 385/603/589
f 385/603/589 361/602/588 360/604/590
f 385/603/589 360/604/590 384/605/591
f 384/605/591 360/604/590 359/606/592
f 384/605/591 359/606/592 383/607/593
f 383/607/593 359/606/592 358/608/594
f 383/607/593 358/608/594 382/609/595
f 382/610/595 358/611/594 357/612/596
f 382/610/595 357/612/596 381/613/597
f 381/613/597 357/612/596 356/614/598
f 381/613/597 356/614/598 380/615/599
f 380/615/599 356/614/598 355/616/600
f 380/615/599 355/616/600 379/617/601
f 379/617/601 355/616/600 354/618/602
f 379/617/601 354/618/602 378/619/603
f 378/619/603 354/618/602 353/620/604
f 378/619/603 353/620/604 377/621/605
f 377/621/605 353/620/604 352/622/606
f 377/621/605 352/622/606 376/623/607
f 376/623/607 352/622/606 351/624/608
f 376/623/607 351/624/608 375/625/609
f 375/625/609 351/624/608 350/626/610
f 375/625/609 350/626/610 374/627/611
f 374/627/611 350/626/610 349/628/612
f 374/627/611 349/628/612 373/629/613
f 373/629/613 349/628/612 348/630/614
f 373/629/613 348/630/614 372/631/615
f 372/631/615 348/630/614 347/632/616
f 372/631/615 347/632/616 371/586/572
f 371/586/572 347/632/616 346/584/570
f 394/633/617 421/634/618 370/635/619
f 370/635/619 421/634/618 395/636/620
f 370/635/619 395/636/620 396/637/621
f 421/634/618 394/633/617 420/638/622
f 420/638/622 394/633/617 393/639/623
f 420/638/622 393/639/623 419/640/624
f 419/640/624 393/639/623 392/641/625
f 419/640/624 392/641/625 418/642/626
f 418/642/626 392/641/625 391/643/627
f 418/642/626 391/643/627 417/644/628
f 417/644/628 391/643/627 390/645/629
f 417/644/628 390/645/629 416/646/630
f 416/646/630 390/645/629 389/647/631
f 416/646/630 389/647/631 415/648/632
f 415/648/632 389/647/631 388/649/633
f 415/648/632 388/649/633 414/650/634
f 414/650/634 388/649/633 387/651/635
f 414/650/634 387/651/635 413/652/636
f 413/652/636 387/651/635 386/653/637
f 413/652/636 386/653/637 412/654/638
f 412/654/638 386/653/637 385/655/639
f 412/654/638 385/655/639 411/656/640
f 411/656/640 385/655/639 384/657/641
f 411/656/640 384/657/641 410/658/642
f 410/658/642 384/657/641 383/659/643
f 410/658/642 383/659/643 409/660/644
f 409/660/644 383/659/643 408/661/645
f 408/661/645 383/659/643 382/662/646
f 408/661/645 382/662/646 407/663/647
f 407/663/647 382/662/646 381/664/648
f 407/663/647 381/664/648 406/665/649
f 406/665/649 381/664/648 380/666/650
f 406/665/649 380/666/650 405/667/651
f 405/667/651 380/666/650 379/668/652
f 405/667/651 379/668/652 404/669/653
f 404/669/653 379/668/652 378/670/654
f 404/669/653 378/670/654 403/671/655
f 403/671/655 378/670/654 377/672/656
f 403/671/655 377/672/656 402/673/657
f 402/673/657 377/672/656 376/674/658
f 402/673/657 376/674/658 401/675/659
f 401/675/659 376/674/658 375/676/660
f 401/675/659 375/676/660 400/677/661
f 400/677/661 375/676/660 374/678/662
f 400/677/661 374/678/662 399/679/663
f 399/679/663 374/678/662 373/680/664
f 399/679/663 373/680/664 398/681/665
f 398/681/665 373/680/664 372/682/666
f 398/681/665 372/682/666 397/683/667
f 397/683/667 372/682/666 371/684/668
f 397/683/667 371/684/668 396/637/621
f 396/637/621 371/684/668 370/635/619
f 57/685/669 327/686/670 31/687/671
f 31/687/671 327/686/670 326/688/672
f 31/687/671 326/688/672 325/689/673
f 56/690/674 417/691/675 57/685/669
f 57/685/669 417/691/675 416/692/676
f 57/685/669 416/692/676 330/693/677
f 330/693/677 416/692/676 331/694/678
f 331/694/678 416/692/676 332/695/679
f 332/695/679 416/692/676 333/696/680
f 333/696/680 416/692/676 334/697/681
f 334/697/681 416/692/676 415/698/682
f 334/697/681 415/698/682 335/699/683
f 335/699/683 415/698/682 336/700/684
f 336/700/684 415/698/682 337/701/685
f 337/701/685 415/698/682 338/702/686
f 338/702/686 415/698/682 339/703/687
f 339/703/687 415/698/682 340/704/688
f 340/704/688 415/698/682 341/705/689
f 341/705/689 415/698/682 342/706/690
f 342/706/690 415/698/682 343/707/691
f 343/707/691 415/698/682 344/708/692
f 344/708/692 415/698/682 345/709/693
f 345/709/693 415/698/682 314/710/694
f 314/710/694 415/698/682 414/711/695
f 314/710/694 414/711/695 32/712/696
f 32/712/696 414/711/695 33/713/697
f 33/713/697 414/711/695 413/714/698
f 33/713/697 413/714/698 34/715/699
f 34/715/699 413/714/698 412/716/700
f 34/715/699 412/716/700 35/717/701
f 35/717/701 412/716/700 411/718/702
f 35/717/701 411/718/702 36/719/703
f 36/719/703 411/718/702 410/720/704
f 36/719/703 410/720/704 37/721/705
f 37/721/705 410/720/704 409/722/706
f 37/721/705 409/722/706 90/723/707
f 90/723/707 409/722/706 91/724/708
f 91/724/708 409/722/706 92/725/709
f 92/725/709 409/722/706 93/726/710
f 93/726/710 409/722/706 94/727/711
f 94/727/711 409/722/706 95/728/712
f 95/728/712 409/722/706 96/729/713
f 96/729/713 409/722/706 97/730/714
f 97/730/714 409/722/706 98/731/715
f 98/732/715 409/733/706 408/734/716
f 98/732/715 408/734/716 99/735/717
f 99/735/717 408/734/716 100/736/718
f 100/736/718 408/734/716 101/737/719
f 101/737/719 408/734/716 102/738/720
f 102/738/720 408/734/716 103/739/721
f 103/739/721 408/734/716 104/740/722
f 104/740/722 408/734/716 105/741/723
f 105/741/723 408/734/716 106/742/724
f 106/742/724 408/734/716 38/743/725
f 106/742/724 38/743/725 107/744/726
f 107/744/726 38/743/725 108/745/727
f 108/745/727 38/743/725 109/746/728
f 109/746/728 38/743/725 110/747/729
f 110/747/729 38/743/725 111/748/730
f 111/749/730 38/750/725 112/751/731
f 112/751/731 38/750/725 113/752/732
f 113/752/732 38/750/725 114/753/733
f 114/753/733 38/750/725 115/754/734
f 115/754/734 38/750/725 116/755/735
f 116/755/735 38/750/725 117/756/736
f 117/756/736 38/750/725 37/721/705
f 117/756/736 37/721/705 118/757/737
f 118/757/737 37/721/705 119/758/738
f 119/758/738 37/721/705 120/759/739
f 120/759/739 37/721/705 121/760/740
f 121/760/740 37/721/705 90/723/707
f 417/691/675 56/690/674 418/761/741
f 418/761/741 56/690/674 55/762/742
f 418/761/741 55/762/742 419/763/743
f 419/763/743 55/762/742 54/764/744
f 419/763/743 54/764/744 420/765/745
f 420/765/745 54/764/744 53/766/746
f 420/765/745 53/766/746 421/767/747
f 421/767/747 53/766/746 52/768/748
f 421/767/747 52/768/748 186/769/749
f 186/769/749 52/768/748 187/770/750
f 187/770/750 52/768/748 188/771/751
f 188/771/751 52/768/748 189/772/752
f 189/772/752 52/768/748 190/773/753
f 190/773/753 52/768/748 51/774/754
f 190/773/753 51/774/754 191/775/755
f 191/775/755 51/774/754 192/776/756
f 192/776/756 51/774/754 193/777/757
f 193/777/757 51/774/754 194/778/758
f 194/778/758 51/774/754 195/779/759
f 195/779/759 51/774/754 196/780/760
f 196/780/760 51/774/754 197/781/761
f 197/781/761 51/774/754 198/782/762
f 198/782/762 51/774/754 199/783/763
f 199/783/763 51/774/754 200/784/764
f 200/784/764 51/774/754 201/785/765
f 201/785/765 51/774/754 50/786/766
f 201/785/765 50/786/766 202/787/767
f 202/787/767 50/786/766 396/788/768
f 202/787/767 396/788/768 203/789/769
f 203/789/769 396/788/768 395/790/770
f 203/789/769 395/790/770 204/791/771
f 204/791/771 395/790/770 205/792/772
f 205/792/772 395/790/770 206/793/773
f 206/793/773 395/790/770 207/794/774
f 207/794/774 395/790/770 208/795/775
f 208/795/775 395/790/770 209/796/776
f 209/796/776 395/790/770 210/797/777
f 210/797/777 395/790/770 211/798/778
f 211/798/778 395/790/770 212/799/779
f 212/799/779 395/790/770 213/800/780
f 213/800/780 395/790/770 214/801/781
f 214/801/781 395/790/770 215/802/782
f 215/802/782 395/790/770 216/803/783
f 216/803/783 395/790/770 217/804/784
f 217/804/784 395/790/770 421/767/747
f 217/804/784 421/767/747 186/769/749
f 396/788/768 50/786/766 397/805/785
f 397/805/785 50/786/766 49/806/786
f 397/805/785 49/806/786 398/807/787
f 398/807/787 49/806/786 48/808/788
f 398/807/787 48/808/788 399/809/789
f 399/809/789 48/808/788 47/810/790
f 399/809/789 47/810/790 400/811/791
f 400/811/791 47/810/790 46/812/792
f 400/811/791 46/812/792 401/813/793
f 401/813/793 46/812/792 45/814/794
f 401/813/793 45/814/794 234/815/795
f 234/815/795 45/814/794 235/816/796
f 235/816/796 45/814/794 236/817/797
f 236/817/797 45/814/794 237/818/798
f 237/818/798 45/814/794 238/819/799
f 238/819/799 45/814/794 239/820/800
f 239/820/800 45/814/794 240/821/801
f 240/821/801 45/814/794 241/822/802
f 241/822/802 45/814/794 242/823/803
f 242/823/803 45/814/794 44/824/804
f 242/823/803 44/824/804 243/825/805
f 243/825/805 44/824/804 244/826/806
f 244/826/806 44/824/804 245/827/807
f 245/827/807 44/824/804 246/828/808
f 246/828/808 44/824/804 247/829/809
f 247/829/809 44/824/804 248/830/810
f 248/830/810 44/824/804 249/831/811
f 249/831/811 44/824/804 218/832/812
f 218/832/812 44/824/804 402/833/813
f 218/832/812 402/833/813 219/834/814
f 219/834/814 402/833/813 220/835/815
f 220/835/815 402/833/813 221/836/816
f 221/836/816 402/833/813 222/837/817
f 222/837/817 402/833/813 223/838/818
f 223/838/818 402/833/813 224/839/819
f 224/839/819 402/833/813 225/840/820
f 225/840/820 402/833/813 226/841/821
f 226/841/821 402/833/813 227/842/822
f 227/842/822 402/833/813 228/843/823
f 228/843/823 402/833/813 229/844/824
f 229/844/824 402/833/813 401/813/793
f 229/844/824 401/813/793 230/845/825
f 230/845/825 401/813/793 231/846/826
f 231/846/826 401/813/793 232/847/827
f 232/847/827 401/813/793 233/848/828
f 233/848/828 401/813/793 234/815/795
f 402/833/813 44/824/804 403/849/829
f 403/849/829 44/824/804 43/850/830
f 403/849/829 43/850/830 404/851/831
f 404/851/831 43/850/830 42/852/832
f 404/851/831 42/852/832 405/853/833
f 405/853/833 42/852/832 41/854/834
f 405/853/833 41/854/834 406/855/835
f 406/855/835 41/854/834 40/856/836
f 406/855/835 40/856/836 407/857/837
f 407/857/837 40/856/836 39/858/838
f 407/857/837 39/858/838 408/734/716
f 408/734/716 39/858/838 38/743/725
f 314/710/694 32/712/696 315/859/839
f 315/859/839 32/712/696 31/687/671
f 315/859/839 31/687/671 316/860/840
f 316/860/840 31/687/671 317/861/841
f 317/861/841 31/687/671 318/862/842
f 318/862/842 31/687/671 319/863/843
f 319/863/843 31/687/671 320/864/844
f 320/864/844 31/687/671 321/865/845
f 321/865/845 31/687/671 322/866/846
f 322/866/846 31/687/671 323/867/847
f 323/867/847 31/687/671 324/868/848
f 324/868/848 31/687/671 325/689/673
f 330/693/677 329/869/849 57/685/669
f 57/685/669 329/869/849 328/870/850
f 57/685/669 328/870/850 327/686/670
# 421 vertices
# 870 texture params
# 850 normals
# 854 facets

# 1 groups
